<?xml version="1.0" encoding="UTF-8"?>
<svg id="Illustration" xmlns="http://www.w3.org/2000/svg" xmlns:xlink="http://www.w3.org/1999/xlink" viewBox="0 0 2500 2500">
  <defs>
    <style>
      .cls-1, .cls-2 {
        fill: none;
      }

      .cls-3 {
        fill: #9cc7f2;
      }

      .cls-4 {
        fill: #f2e6dc;
      }

      .cls-5 {
        fill: #23a54e;
      }

      .cls-6 {
        fill: #f4f4f4;
      }

      .cls-2 {
        stroke-width: 4px;
      }

      .cls-2, .cls-7 {
        stroke: #fff;
        stroke-miterlimit: 10;
      }

      .cls-8 {
        fill: #d87355;
      }

      .cls-9 {
        opacity: .5;
      }

      .cls-9, .cls-7, .cls-10 {
        fill: #fff;
      }

      .cls-11 {
        fill: #1f2937;
      }

      .cls-12 {
        fill: #3b82f6;
      }

      .cls-13 {
        fill: #776e42;
      }

      .cls-7 {
        stroke-width: 2px;
      }

      .cls-14 {
        fill: #e6d0be;
      }

      .cls-15 {
        fill: #22c55e;
      }

      .cls-16 {
        fill: #e5b389;
      }

      .cls-17 {
        fill: #363e44;
      }

      .cls-18 {
        clip-path: url(#clippath);
      }

      .cls-19 {
        fill: #40484c;
      }
    </style>
    <clipPath id="clippath">
      <path id="SVGID" class="cls-1" d="M455.67,773.11s7.57-13.23,21-17.99c13.43-4.76,27.64.76,27.64.76,0,0-7.57,13.23-21,17.99-13.43,4.76-27.64-.76-27.64-.76Z"/>
    </clipPath>
  </defs>
  <rect class="cls-3" x="577.25" y="813.85" width="1711.83" height="1190.62" transform="translate(2866.33 2818.32) rotate(180)"/>
  <rect class="cls-6" x="943.54" y="554.95" width="979.24" height="1604.41" transform="translate(2790.32 -76.01) rotate(90)"/>
  <ellipse class="cls-10" cx="1433.17" cy="1919.25" rx="32.22" ry="32.21" transform="translate(-4.98 3.73) rotate(-.15)"/>
  <path class="cls-7" d="M1664.04,2323.19h-461.74c-.7,0-1.26-.57-1.26-1.26v-22.52c0-.08,0-.16.02-.23l50.68-269.23c.11-.6.63-1.03,1.24-1.03h360.39c.61,0,1.13.43,1.24,1.03l50.68,269.23c.01.08.02.16.02.23v22.52c0,.7-.56,1.26-1.26,1.26ZM1203.55,2320.66h459.22v-21.14l-50.46-268.08h-358.29l-50.46,268.08v21.14Z"/>
  <path class="cls-2" d="M1664.04,2351.33h-461.74c-.7,0-1.26-.57-1.26-1.26s.56-1.26,1.26-1.26h461.74c.7,0,1.26.57,1.26,1.26s-.56,1.26-1.26,1.26Z"/>
  <path class="cls-10" d="M1162.65,1781.51l-33.73-9.66c1.69-17.3,1.97-34.52.92-51.52l34.02-8.49-28.73-115.17-34.1,8.51c-7.13-15.64-15.48-30.7-24.98-45.03l25.28-24.41-82.49-85.36-25.22,24.36c-13.87-9.89-28.62-18.78-44.19-26.5l9.67-33.72-114.14-32.68-9.67,33.72c-17.31-1.69-34.53-1.96-51.54-.91l-8.48-34.01-115.21,28.75,8.5,34.08c-15.65,7.13-30.71,15.49-45.05,24.98l-24.41-25.26-85.41,82.49,24.36,25.2c-9.9,13.87-18.79,28.62-26.52,44.19l-33.73-9.66h0s-32.72,114.11-32.72,114.11l33.73,9.66c-1.69,17.3-1.97,34.52-.92,51.52l-34.02,8.49,28.73,115.17,34.1-8.51c7.13,15.64,15.48,30.7,24.97,45.03l-25.28,24.41,82.49,85.36h0s25.22-24.36,25.22-24.36c13.87,9.89,28.62,18.78,44.2,26.5l-9.67,33.72,114.14,32.68,9.67-33.72c17.31,1.69,34.53,1.96,51.54.91l8.48,34.01h0s115.21-28.75,115.21-28.75l-8.5-34.08c15.65-7.13,30.71-15.49,45.05-24.98l24.41,25.26,85.41-82.48-24.36-25.2c9.9-13.87,18.79-28.62,26.52-44.19l33.73,9.66,32.72-114.11ZM1003.42,1804.8c-33.62,104.54-144.22,165.87-250.72,139.02-117.6-29.65-185.54-152.13-148.41-267.57,33.62-104.54,144.22-165.87,250.72-139.02,117.6,29.65,185.54,152.13,148.41,267.57Z"/>
  <path class="cls-4" d="M803.87,2001.49c-23.9,0-48.08-3.29-71.95-10.12-67.02-19.19-122.54-63.32-156.35-124.27-33.8-60.95-41.84-131.41-22.62-198.41,17.33-60.43,55.87-112.57,108.52-146.81,52.13-33.9,114.61-48.16,175.93-40.15.69.09,1.18.72,1.09,1.42-.09.69-.72,1.18-1.42,1.09-125.61-16.4-246.73,63.2-281.7,185.16-19.03,66.35-11.07,136.13,22.41,196.49,33.48,60.36,88.46,104.06,154.83,123.06,113.21,32.42,234.02-15.68,293.8-116.95.36-.6,1.13-.8,1.73-.45.6.35.8,1.13.45,1.73-47.76,80.92-134.13,128.21-224.73,128.21Z"/>
  <path class="cls-15" d="M1631.67,1938.78l179.09-32.5-238.16-71.61c-44.26-99.42-58.96-193.33-58.96-193.33,0,0,42.55-2.43,103.59,3.73l108.59,182.5-9.96-166.32c50.51,11.73,104.3,30.07,153.51,58.62,6.92,4.02,13.56,8.19,19.93,12.49l22.48,251.54,65.47-159.37c42.16,72.61,39.05,151.73,1.5,197.56-57.6,70.31-205.64,74.58-317.96-47.61-10.37-11.28-20.06-23.25-29.12-35.69Z"/>
  <path class="cls-5" d="M1617.23,1645.07c29.47,2.97,63.24,7.95,98.63,16.17l9.96,166.32-108.59-182.5Z"/>
  <path class="cls-5" d="M1889.3,1732.36c39.6,26.77,68.56,58.78,87.95,92.17l-65.47,159.37-22.48-251.54Z"/>
  <path class="cls-5" d="M1631.67,1938.78c-23.87-32.76-43.34-68.78-59.06-104.11l238.16,71.61-179.09,32.5Z"/>
  <path class="cls-13" d="M2028.75,2261.9c-.61,0-1.15-.45-1.25-1.07-14.27-92.8-49.62-182.41-102.21-259.17-43.56-63.57-98.08-118.07-162.04-161.98-.57-.39-.72-1.18-.33-1.76.39-.57,1.18-.72,1.76-.33,64.22,44.08,118.95,98.8,162.69,162.63,52.81,77.06,88.29,167.04,102.62,260.21.11.69-.37,1.33-1.06,1.44-.07,0-.13.01-.19.01Z"/>
  <path class="cls-15" d="M1948.77,1882.24l113.73,51.83-111.57-147.74c9.01-86.57,33.04-157.11,33.04-157.11,0,0,25.19,15.95,58,45.44l-.89,170.21,51.75-118.28c24.86,28.96,49.31,63.81,67.61,103.79,2.58,5.62,4.93,11.23,7.09,16.82l-74.02,181.96,92.52-82.29c-.95,67.29-30.06,120.31-67.39,136.23-57.25,24.42-143.46-33.93-165.54-164.3-2.04-12.03-3.45-24.26-4.34-36.56Z"/>
  <path class="cls-5" d="M2041.97,1674.66c15.84,14.24,33.45,31.64,50.86,51.93l-51.75,118.28.89-170.21Z"/>
  <path class="cls-5" d="M2167.53,1847.2c13.42,34.76,18.94,68.73,18.5,99.67l-92.52,82.29,74.02-181.96Z"/>
  <path class="cls-5" d="M1948.77,1882.24c-2.34-32.36-1.04-65.15,2.16-95.91l111.57,147.74-113.73-51.83Z"/>
  <path class="cls-13" d="M2064.86,2268.79c-.14,0-.27-.02-.41-.07-.66-.23-1.01-.94-.79-1.6,23.88-69.59,34.61-145.72,31.02-220.17-2.97-61.66-15.35-121.62-36.79-178.23-.25-.65.08-1.38.73-1.63.65-.25,1.38.08,1.63.73,21.53,56.85,33.96,117.08,36.95,179,3.6,74.76-7.17,151.22-31.15,221.11-.18.52-.67.85-1.19.85Z"/>
  <rect class="cls-11" x="1912.03" y="2168.25" width="292.26" height="138.58" transform="translate(4116.32 4475.09) rotate(180)"/>
  <rect class="cls-10" x="715.31" y="364.82" width="1220.02" height="398.32"/>
  <path class="cls-11" d="M1964.98,787.38H744.96c-.7,0-1.26-.57-1.26-1.26v-394.86c0-.7.57-1.26,1.26-1.26h1220.02c.7,0,1.26.57,1.26,1.26v394.86c0,.7-.56,1.26-1.26,1.26ZM746.22,784.85h1217.5v-392.33H746.22v392.33Z"/>
  <g>
    <path class="cls-11" d="M1598.99,470.49h-202.67c-.7,0-1.26-.57-1.26-1.26s.56-1.26,1.26-1.26h202.67c.7,0,1.26.57,1.26,1.26s-.56,1.26-1.26,1.26Z"/>
    <path class="cls-11" d="M1277.71,470.49h-451.51c-.7,0-1.26-.57-1.26-1.26s.56-1.26,1.26-1.26h451.51c.7,0,1.26.57,1.26,1.26s-.56,1.26-1.26,1.26Z"/>
    <path class="cls-11" d="M1598.99,512.79h-530.47c-.7,0-1.26-.57-1.26-1.26s.56-1.26,1.26-1.26h530.47c.7,0,1.26.57,1.26,1.26s-.56,1.26-1.26,1.26Z"/>
    <path class="cls-11" d="M1005.44,512.79h-179.23c-.7,0-1.26-.57-1.26-1.26s.56-1.26,1.26-1.26h179.23c.7,0,1.26.57,1.26,1.26s-.56,1.26-1.26,1.26Z"/>
    <path class="cls-11" d="M1598.99,552.45h-202.67c-.7,0-1.26-.57-1.26-1.26s.56-1.26,1.26-1.26h202.67c.7,0,1.26.57,1.26,1.26s-.56,1.26-1.26,1.26Z"/>
    <path class="cls-11" d="M1277.71,552.45h-451.51c-.7,0-1.26-.57-1.26-1.26s.56-1.26,1.26-1.26h451.51c.7,0,1.26.57,1.26,1.26s-.56,1.26-1.26,1.26Z"/>
    <path class="cls-11" d="M1598.99,594.76h-382.2c-.7,0-1.26-.57-1.26-1.26s.56-1.26,1.26-1.26h382.2c.7,0,1.26.57,1.26,1.26s-.56,1.26-1.26,1.26Z"/>
    <path class="cls-11" d="M1124.04,594.76h-297.84c-.7,0-1.26-.57-1.26-1.26s.56-1.26,1.26-1.26h297.84c.7,0,1.26.57,1.26,1.26s-.56,1.26-1.26,1.26Z"/>
    <path class="cls-11" d="M1598.99,655.57h-467.44c-.7,0-1.26-.57-1.26-1.26s.56-1.26,1.26-1.26h467.44c.7,0,1.26.57,1.26,1.26s-.56,1.26-1.26,1.26Z"/>
    <path class="cls-11" d="M1598.99,697.88h-184.4c-.7,0-1.26-.57-1.26-1.26s.56-1.26,1.26-1.26h184.4c.7,0,1.26.57,1.26,1.26s-.56,1.26-1.26,1.26Z"/>
    <path class="cls-11" d="M1342.18,697.88h-256.81c-.7,0-1.26-.57-1.26-1.26s.56-1.26,1.26-1.26h256.81c.7,0,1.26.57,1.26,1.26s-.56,1.26-1.26,1.26Z"/>
  </g>
  <path class="cls-11" d="M1708.56,495.02l.08,58.66c.04,32.4,26.32,58.63,58.7,58.59h0c32.38-.04,58.59-26.34,58.54-58.74l-.08-58.66-117.24.15Z"/>
  <ellipse class="cls-15" cx="1767.02" cy="370.39" rx="151.77" ry="151.88"/>
  <path class="cls-10" d="M1766.88,574.97c-19.98,0-57.08-1.92-57.09-9.22,0-.7.56-1.26,1.26-1.26h0c.7,0,1.26.56,1.26,1.26.57,2.41,19.24,6.7,54.4,6.7.19,0,.37,0,.56,0,35.52-.05,54.37-4.42,54.94-6.86,0-.7.56-1.26,1.26-1.26h0c.7,0,1.26.57,1.26,1.27,0,7.35-37.58,9.35-57.46,9.37h-.4Z"/>
  <path class="cls-10" d="M1766.85,549.25c-19.98,0-57.08-1.92-57.09-9.22,0-.7.56-1.26,1.26-1.26h0c.7,0,1.26.56,1.26,1.26.58,2.42,19.45,6.7,54.96,6.7,35.52-.05,54.37-4.42,54.94-6.86,0-.7.56-1.26,1.26-1.26h0c.7,0,1.26.57,1.26,1.27,0,7.36-37.58,9.35-57.46,9.37h-.4Z"/>
  <g>
    <path class="cls-17" d="M1746.9,486.6c-.49,0-.96-.29-1.16-.77l-47.84-112.1c-.27-.64.02-1.38.67-1.66.63-.27,1.38.02,1.66.67l47.84,112.1c.27.64-.02,1.38-.67,1.66-.16.07-.33.1-.5.1Z"/>
    <path class="cls-17" d="M1787.44,486.54c-.17,0-.33-.03-.49-.1-.64-.27-.94-1.01-.67-1.66l47.55-112.23c.27-.64,1.02-.94,1.65-.67.64.27.94,1.01.67,1.66l-47.55,112.23c-.2.48-.67.77-1.16.77Z"/>
    <path class="cls-10" d="M1739.75,388.02c-5.92,0-11.84-1.43-17-4.37-.61-.35-.82-1.12-.47-1.72.35-.61,1.11-.82,1.72-.47,10.86,6.18,25.29,5.17,35.32-2.2-9.06-4.87-16.37-13.05-19.47-22.93-2.22-7.09-2.03-14.02.53-19.51,3.11-6.65,9.84-10.85,16.39-10.2,7.6.75,12.96,7.43,15.43,13.42,5.34,12.95,1.85,28.99-8.27,38.64,5.5,2.3,11.5,3.33,17.47,2.72,16.87-1.71,31.45-16.27,33.18-33.15.07-.69.7-1.2,1.38-1.13.69.07,1.2.69,1.13,1.38-1.85,18.03-17.41,33.58-35.44,35.41-6.79.69-13.64-.61-19.82-3.41-6.2,4.95-14.16,7.52-22.09,7.52ZM1755.47,329.08c-5.1,0-10.35,3.56-12.8,8.81-2.3,4.92-2.44,11.2-.41,17.69,3.01,9.59,10.26,17.48,19.18,21.96,9.96-8.86,13.51-24.2,8.43-36.53-2.19-5.32-6.85-11.23-13.34-11.87-.35-.03-.7-.05-1.05-.05Z"/>
  </g>
  <polygon class="cls-16" points="273.77 2288.23 163.54 2286.57 196.38 2144.49 308.72 2163.21 273.77 2288.23"/>
  <g>
    <path class="cls-11" d="M427.79,2361.38H142.33l26.28-109.08h111.83l80.87,24.66c39.63,10.73,66.84,45.28,66.47,84.42h0Z"/>
    <g>
      <path class="cls-11" d="M298.05,2281.16c-.32,0-.65-.12-.89-.37-.49-.49-.49-1.29,0-1.79l17.87-17.86c.49-.49,1.29-.49,1.79,0,.49.49.49,1.29,0,1.79l-17.87,17.86c-.25.25-.57.37-.89.37Z"/>
      <path class="cls-11" d="M318.37,2287.26c-.32,0-.65-.12-.89-.37-.49-.49-.49-1.29,0-1.79l17.87-17.86c.49-.49,1.29-.49,1.79,0,.49.49.49,1.29,0,1.79l-17.87,17.86c-.25.25-.57.37-.89.37Z"/>
    </g>
  </g>
  <polygon class="cls-16" points="788.3 2309.49 678.07 2307.83 681.47 2144.49 793.81 2163.21 788.3 2309.49"/>
  <g>
    <path class="cls-11" d="M940.11,2361.38h-285.46l24.58-109.08h113.53l80.87,24.66c39.63,10.73,66.84,45.28,66.47,84.42h0Z"/>
    <g>
      <path class="cls-11" d="M810.46,2282.97c-.32,0-.65-.12-.89-.37-.49-.49-.49-1.29,0-1.79l17.87-17.86c.49-.49,1.29-.49,1.79,0,.49.49.49,1.29,0,1.79l-17.87,17.86c-.25.25-.57.37-.89.37Z"/>
      <path class="cls-11" d="M830.77,2289.07c-.32,0-.65-.12-.89-.37-.49-.49-.49-1.29,0-1.79l17.87-17.86c.49-.49,1.29-.49,1.79,0,.49.49.49,1.29,0,1.79l-17.87,17.86c-.25.25-.57.37-.89.37Z"/>
    </g>
  </g>
  <path class="cls-12" d="M419.35,1210.4s-68.08,151.43-114.04,335.18c-45.96,183.76-127.66,644.85-127.66,644.85h125.95s248.5-284.14,270.63-673.77l76.59-307.96-231.48,1.7Z"/>
  <path class="cls-12" d="M521.48,1574.51s129.36,187.16,139.57,605.71h144.68s105.53-234.8,45.96-481.51c-59.57-246.71-156.59-512.13-156.59-512.13h-154.89l-18.72,387.93Z"/>
  <path class="cls-12" d="M562.95,1621.4c-.09,0-.17,0-.26-.03-.68-.14-1.12-.81-.98-1.49l25.9-125.07c.07-.32.26-.61.53-.79l37.69-25.5c.58-.39,1.36-.24,1.75.34.39.58.24,1.36-.34,1.75l-37.26,25.21-25.8,124.56c-.12.6-.65,1.01-1.24,1.01Z"/>
  <path class="cls-11" d="M687.77,872.97c-34.73-7.43-90.72-17.18-141.6-11.69-59.3,6.39-148.96,35.35-187.62,58.41-86.43,51.56-120.74,96.19-120.74,96.19l131.07,29.47-61.48,178.75c-21.33,62.03-12.13,132.68,23.84,187.53l92.67-1.3-14.35-99.17,44.68,89.54,257.08-172.8,9.63-159.05,166.08-46.19s-138.32-136.67-199.26-149.7Z"/>
  <path class="cls-11" d="M715.95,1124.43s73.44,54.08,129.54,36.59c56.1-17.49,67.08-57.73,63.64-82.1-3.44-24.37-94.75-181.39-235.09-210.46,0,0-13.23,178.61,41.92,255.96Z"/>
  <path class="cls-17" d="M717.46,1124.71h-.02c-.7-.01-1.25-.59-1.24-1.28l.38-22.73c.01-.7.65-1.25,1.28-1.24.7.01,1.25.59,1.24,1.28l-.38,22.73c-.01.69-.57,1.24-1.26,1.24Z"/>
  <g>
    <polygon class="cls-10" points="371.04 1434.74 452.72 1346.48 424.47 1239.32 337.96 1240.12 256.28 1328.38 299.89 1419.69 371.04 1434.74"/>
    <polygon class="cls-8" points="1034.76 717.59 452.72 1346.48 337.96 1240.12 920 611.22 996.93 643.29 1034.76 717.59"/>
    <path class="cls-17" d="M189.24,1400.81c-54.13,58.48-61.67,122.08-29.98,151.46h0c31.69,29.37,90.62,13.39,144.75-45.09l68.73-74.26-114.76-106.37-68.73,74.26Z"/>
    <g>
      <polygon class="cls-4" points="920 611.22 1034.76 717.59 1069.75 631.06 1058.2 587.52 1003.54 569.69 920 611.22"/>
      <polygon class="cls-19" points="1003.54 569.69 1069.75 631.06 1117.48 513.03 1003.54 569.69"/>
    </g>
  </g>
  <g>
    <path class="cls-16" d="M601.25,1092.04c-12.82,3.88-68.7,11.51-77.46,36.27-8.82,24.93,1.22,52.29,17.77,72.81.11.01.22.03.33.05,6.55,3.23,16.86,7.05,28.9,5.63,13.73-1.62,16.56-8.5,30.79-12.46,24.02-6.68,39.81,6.97,43.86-.87,2.78-5.38-6.08-13.74-16.15-19.25-10.34-5.66-19.44-4.96-19.43-6.9,0-2.12,9.33-1.64,20.99-2.1,5.42-.21,20.61,8.34,25.49,1.54,3.89-5.42-9.65-18.27-25.64-21.56-11.31-2.33-21.16,3.09-21.78,1.08-.47-1.51,5.48-4.59,11.39-5.73,9.75-1.88,25.39,6.71,29.76.36,4.28-6.22-7.75-17.23-22.25-21.19-12.23-3.33-22.92,3.23-23.71.74-.56-1.75,3.62-5.68,14.42-10.96,9.01-4.4,29.35-7.18,26.19-17.26-2.66-8.48-24.08-6.07-43.44-.2Z"/>
    <path class="cls-16" d="M326.78,1148.57c-28.21,8.91-47.83,35.1-47.17,64.53.43,19.3,9.63,39.32,39.65,51.7,73.07,30.16,238.66-72.67,238.66-72.67l20.4-94.69c-95.32,15.8-173.89,26.59-251.53,51.11Z"/>
  </g>
  <path class="cls-11" d="M423.61,1124.08l13.68,141.33-125.35,19.38c-80.5,12.44-171.32-67.87-152.48-147.08,16.49-69.31,57.25-108.12,139.12-177.66l107,31.8-45.95,134.78,63.98-2.54Z"/>
  <path class="cls-17" d="M359.63,1127.89c-.14,0-.27-.02-.41-.07-.66-.22-1.01-.94-.79-1.6l20.76-60.9c.22-.66.95-1.01,1.6-.79.66.22,1.01.94.79,1.6l-20.76,60.9c-.18.52-.67.86-1.19.86Z"/>
  <path class="cls-17" d="M293.98,1287.44c-7.6,0-15.14-.74-22.56-2.23-.68-.14-1.13-.8-.99-1.49.14-.68.8-1.13,1.49-.99,13.02,2.61,26.42,2.88,39.83.8l124.17-19.19-3.16-32.67c-.07-.69.44-1.31,1.13-1.38.7-.07,1.31.44,1.38,1.13l3.28,33.86c.07.67-.4,1.27-1.06,1.37l-125.35,19.38c-6.06.94-12.13,1.41-18.16,1.41Z"/>
  <path class="cls-17" d="M340.67,1128.64c-.67,0-1.23-.53-1.26-1.21-.03-.7.51-1.28,1.21-1.31l82.94-3.3c.71-.02,1.28.51,1.31,1.21.03.7-.51,1.28-1.21,1.31l-82.94,3.3s-.03,0-.05,0Z"/>
  <g>
    <path class="cls-16" d="M715.31,1020.76l88.99,98.55c24.09,26.67,65.42,28.29,91.52,3.59h0c28.33-26.82,26.27-72.51-4.35-96.68l-102.75-81.09-73.41,75.64Z"/>
    <g>
      <path class="cls-16" d="M773.4,995.37c14.66,2.37,19.14,9.88,17.82,18.04-1.32,8.16-7.93,13.88-22.59,11.51-14.66-2.37-31.83-11.93-30.51-20.09,1.32-8.16,20.62-11.83,35.29-9.47Z"/>
      <path class="cls-16" d="M774.74,966.63c17,2.74,22.18,11.45,20.65,20.91-1.53,9.46-9.19,16.09-26.19,13.35s-36.89-13.82-35.37-23.28c1.53-9.46,23.9-13.71,40.9-10.97Z"/>
      <path class="cls-16" d="M781.04,948.04c14.66,2.37,21.27-3.35,22.59-11.51,1.32-8.16-3.16-15.67-17.82-18.04-14.66-2.37-33.97,1.31-35.29,9.47-1.32,8.16,15.85,17.72,30.51,20.09Z"/>
      <path class="cls-16" d="M773.27,975.74c17,2.74,24.66-3.89,26.19-13.35,1.53-9.46-3.66-18.16-20.65-20.9-17-2.74-39.37,1.51-40.9,10.97-1.53,9.46,18.37,20.54,35.37,23.28Z"/>
    </g>
  </g>
  <rect class="cls-16" x="418.06" y="732.77" width="77.16" height="194.57" rx="27.96" ry="27.96" transform="translate(13.32 -7.19) rotate(.92)"/>
  <path class="cls-16" d="M548.99,809.26c-4.9,23.99-74.41,27.37-74.41,27.37l-67.66-20.27c-23.53-25.16-22.19-64.62,2.98-88.14,25.17-23.52,64.65-22.18,88.17,2.98,0,0,55.92,53.63,50.92,78.06Z"/>
  <path class="cls-16" d="M504.03,748.07s25.3,1.44,27.93,5.61c3.13,4.98-8.7,20.86-8.7,20.86,0,0-18.86-26.76-19.23-26.47Z"/>
  <g>
    <path class="cls-10" d="M455.67,773.11s5.14-8.99,14.48-14.82c1.99-1.24,8.16,16.99,5.71,17.26-10.76,1.22-20.19-2.45-20.19-2.45Z"/>
    <g class="cls-18">
      <path class="cls-17" d="M470.29,757.64c2.32-10.02,12.33-16.27,22.36-13.95,10.03,2.32,16.27,12.33,13.95,22.35-2.32,10.02-12.33,16.27-22.36,13.95-10.03-2.32-16.27-12.33-13.95-22.35Z"/>
    </g>
  </g>
  <g>
    <path class="cls-11" d="M353.98,772.3s23.28,68.46,72.95,57.63l2.7-15.27,28.76-8.53-29.64-18.51c-10.35-8.05-10.75-23.56-.83-32.13l43.33-37.42-21.37-21.98c-44.02,8.03-77.69,30.96-95.9,76.2Z"/>
    <path class="cls-11" d="M395.61,723.5c-3.77,5.38-11.19,6.68-16.56,2.91-5.38-3.77-9.5-13.16-5.73-18.53s14-4.71,19.38-.94c5.38,3.77,6.68,11.18,2.91,16.56Z"/>
    <path class="cls-11" d="M404.5,720.07c-5.91,2.87-13.02.4-15.89-5.5-2.87-5.91-1.9-16.11,4-18.98,5.91-2.87,14.52,2.69,17.39,8.59,2.87,5.91.4,13.02-5.51,15.89Z"/>
    <path class="cls-11" d="M423.66,712.89c-8.56,2.43-17.48-2.54-19.91-11.1-2.43-8.56,1.27-21.95,9.83-24.38,8.56-2.43,18.75,7.02,21.18,15.58,2.43,8.56-2.54,17.47-11.1,19.9Z"/>
    <path class="cls-11" d="M382.44,737.01c-3.6,5.49-10.97,7.04-16.46,3.44-5.5-3.59-9.92-12.84-6.32-18.34,3.59-5.49,13.84-5.15,19.34-1.56,5.5,3.59,7.04,10.96,3.44,16.46Z"/>
    <path class="cls-11" d="M436.71,705.26c-7.23-3.23-10.47-11.72-7.24-18.95,3.24-7.23,13.42-14.25,20.65-11.02,7.23,3.23,8.78,15.5,5.54,22.73-3.24,7.23-11.72,10.47-18.95,7.23Z"/>
    <path class="cls-11" d="M374.17,750.22c-3.14,7.55-11.82,11.13-19.37,7.98-7.55-3.14-15.09-13.46-11.94-21.01,3.14-7.55,15.77-9.48,23.33-6.34,7.56,3.14,11.13,11.81,7.99,19.36Z"/>
    <path class="cls-11" d="M364.6,761.67c.41,6.37-4.42,11.87-10.79,12.28-6.37.41-15.21-4.2-15.63-10.57-.41-6.37,7.75-12.09,14.13-12.5,6.37-.41,11.88,4.42,12.29,10.79Z"/>
    <path class="cls-11" d="M451.3,716.18c-7.13-6.51-7.64-17.57-1.13-24.7,6.51-7.13,20.98-11.37,28.12-4.86s4.23,21.3-2.28,28.43c-6.51,7.13-17.57,7.63-24.71,1.12Z"/>
  </g>
  <path class="cls-16" d="M398.24,824.8c4.07,11.16,16.42,16.91,27.59,12.84,11.17-4.07,16.92-16.41,12.85-27.58-4.07-11.16-16.42-16.91-27.59-12.84-11.17,4.07-16.92,16.41-12.85,27.58Z"/>
  <path class="cls-16" d="M528.99,765.6l30.61,42.49c4.26,5.92,2.72,14.18-3.37,18.18-1.53,1.01-3.2,2.08-5,3.2-31.01,19.31-69.81,21.25-102.58,5.08h0c-10.98-5.42-17.47-17.04-16.32-29.22l.38-4.01,11.31-2.73s24.76,15.8,34.06,10.2c9.3-5.6,18.14-25.21,50.9-43.18Z"/>
  <path class="cls-16" d="M513.43,796.58c-3.15,0-6.21-1.51-8.12-4.1-.41-.56-.29-1.35.27-1.76.56-.42,1.35-.29,1.76.27,1.69,2.29,4.57,3.46,7.36,2.96,2.89-.51,5.22-2.7,5.95-5.56.17-.68.86-1.09,1.53-.91.68.17,1.08.86.91,1.53-.97,3.82-4.09,6.74-7.95,7.43-.57.1-1.14.15-1.71.15Z"/>
  <path class="cls-11" d="M386.12,770.3c-.66,0-1.22-.52-1.26-1.18-.04-.7.49-1.3,1.18-1.34l31.51-1.93c.73-.04,1.29.49,1.34,1.18s-.49,1.3-1.18,1.34l-31.51,1.93s-.05,0-.08,0Z"/>
  <rect class="cls-3" x="1164.57" y="896.8" width="1174.58" height="654.04"/>
  <path class="cls-10" d="M2367.7,1579.97h-1174.58c-.7,0-1.26-.57-1.26-1.26v-654.04c0-.7.56-1.26,1.26-1.26h1174.58c.7,0,1.26.57,1.26,1.26v654.04c0,.7-.56,1.26-1.26,1.26ZM1194.38,1577.45h1172.06v-651.52h-1172.06v651.52Z"/>
  <rect class="cls-6" x="1261.8" y="1015.83" width="622.25" height="447.05"/>
  <ellipse class="cls-12" cx="1575.13" cy="1207.04" rx="108.58" ry="108.66"/>
  <polygon class="cls-10" points="1639.11 1207.04 1536.86 1147.96 1536.86 1266.11 1639.11 1207.04"/>
  <rect class="cls-15" x="1293.68" y="1392.98" width="562.89" height="29.16"/>
  <path d="M2195.4,1167.16h-216.95c-31.54,0-57.19-25.66-57.19-57.19s25.66-57.3,57.19-57.3h216.95c31.54,0,57.19,25.66,57.19,57.19s-25.66,57.3-57.19,57.3ZM1978.46,1055.19c-30.14,0-54.67,24.52-54.67,54.67s24.52,54.78,54.67,54.78h216.95c30.14,0,54.67-24.52,54.67-54.67s-24.52-54.78-54.67-54.78h-216.95Z"/>
  <rect class="cls-15" x="1922.53" y="1239.61" width="328.81" height="111.97" rx="44.3" ry="44.3"/>
  <path class="cls-13" d="M2157.53,1461.86c-.13,0-.26-.02-.39-.06-.49-.16-.84-.61-.87-1.13l-10.45-176.41c-.03-.51.25-.99.72-1.21.46-.22,1.02-.14,1.4.21l130.26,119.32c.38.35.51.9.33,1.38-.19.48-.65.81-1.17.81l-72.62.57-46.23,56.06c-.24.3-.6.46-.97.46ZM2148.53,1287.22l10.07,170.09,44.56-54.03c.24-.29.59-.46.96-.46l70-.55-125.6-115.05Z"/>
  <polygon class="cls-9" points="689.29 150.18 1227.27 150.18 1227.27 297.63 1176.56 297.63 1176.56 405.78 1068.37 297.63 689.29 297.63 689.29 150.18"/>
  <path class="cls-14" d="M1159.92,423.69c-.33,0-.65-.13-.89-.37l-107.82-107.78h-378.56c-.7,0-1.26-.57-1.26-1.26v-147.46c0-.7.56-1.26,1.26-1.26h537.98c.7,0,1.26.57,1.26,1.26v147.46c0,.7-.56,1.26-1.26,1.26h-49.44v106.89c0,.51-.31.97-.78,1.17-.16.06-.32.1-.48.1ZM673.91,313.01h377.82c.34,0,.66.13.89.37l106.04,106v-105.11c0-.7.56-1.26,1.26-1.26h49.44v-144.93h-535.45v144.93Z"/>
  <polygon class="cls-15" points="1147.87 222.23 1123.91 225.27 1140.9 242.43 1136.38 266.15 1157.95 255.31 1179.12 266.93 1175.48 243.07 1193.08 226.54 1169.25 222.63 1158.96 200.79 1147.87 222.23"/>
  <polygon class="cls-15" points="1048 222.23 1024.04 225.27 1041.02 242.43 1036.5 266.15 1058.08 255.31 1079.24 266.93 1075.6 243.07 1093.2 226.54 1069.37 222.63 1059.08 200.79 1048 222.23"/>
  <polygon class="cls-15" points="948.12 222.23 924.16 225.27 941.14 242.43 936.62 266.15 958.2 255.31 979.37 266.93 975.72 243.07 993.32 226.54 969.49 222.63 959.2 200.79 948.12 222.23"/>
  <polygon class="cls-15" points="848.24 222.23 824.28 225.27 841.26 242.43 836.74 266.15 858.32 255.31 879.49 266.93 875.85 243.07 893.45 226.54 869.62 222.63 859.33 200.79 848.24 222.23"/>
  <polygon class="cls-15" points="748.37 222.23 724.41 225.27 741.39 242.43 736.87 266.15 758.45 255.31 779.61 266.93 775.97 243.07 793.57 226.54 769.74 222.63 759.45 200.79 748.37 222.23"/>
</svg>