<?xml version="1.0" encoding="UTF-8"?>
<svg xmlns="http://www.w3.org/2000/svg" xmlns:xlink="http://www.w3.org/1999/xlink" viewBox="0 0 3539.91 3515.36">
  <defs>
    <style>
      .cls-1 {
        fill: #91b3fa;
      }

      .cls-2 {
        fill: url(#linear-gradient-3);
      }

      .cls-3 {
        fill: url(#linear-gradient-2);
      }

      .cls-4 {
        fill: #bdd0fb;
      }

      .cls-5 {
        fill: url(#linear-gradient);
      }

      .cls-6, .cls-7, .cls-8, .cls-9 {
        fill: #fff;
      }

      .cls-6, .cls-10 {
        opacity: .64;
      }

      .cls-7 {
        opacity: .73;
      }

      .cls-11 {
        fill: #1f2937;
      }

      .cls-12 {
        fill: #3b82f6;
      }

      .cls-13 {
        isolation: isolate;
      }

      .cls-8 {
        mix-blend-mode: soft-light;
      }

      .cls-14 {
        opacity: .68;
      }

      .cls-15 {
        opacity: .24;
      }

      .cls-16 {
        fill: #22c55e;
      }

      .cls-17 {
        fill: #e5b389;
      }
    </style>
    <linearGradient id="linear-gradient" x1="3747.89" y1="3522.79" x2="1163" y2="1261.02" gradientUnits="userSpaceOnUse">
      <stop offset="0" stop-color="#dae3fe"/>
      <stop offset="1" stop-color="#e9effd"/>
    </linearGradient>
    <linearGradient id="linear-gradient-2" x1="2444.32" y1="561.75" x2="1994.79" y2="1248.89" gradientUnits="userSpaceOnUse">
      <stop offset="0" stop-color="#4042e2"/>
      <stop offset="1" stop-color="#4f52ff"/>
    </linearGradient>
    <linearGradient id="linear-gradient-3" x1="1847.63" y1="1264.77" x2="1854.05" y2="1996.86" xlink:href="#linear-gradient-2"/>
  </defs>
  <g class="cls-13">
    <g id="Illustration">
      <path class="cls-5" d="M3308.6,2348.15c-334.07,786.61-1223.96,1227.27-1995.68,1108.4-125.57-19.34-469.84-76.96-774.64-348.78C-48.47,2584.51-173.96,1548.37,299.36,818.18,643.85,286.73,1261.39-14.53,1848.18.54c126.39,3.25,610.78,23.25,1036.48,374.27,62.53,51.56,200.43,174.07,324.72,368.44,291.85,456.4,316.94,1092.27,99.22,1604.91Z"/>
      <ellipse class="cls-1" cx="1647.12" cy="1838.61" rx="1396.79" ry="1507.7" transform="translate(-261.96 3403.51) rotate(-87.49)"/>
      <g class="cls-15">
        <ellipse class="cls-4" cx="1565.52" cy="1737.83" rx="1183.08" ry="1117.63"/>
      </g>
      <g class="cls-14">
        <path class="cls-8" d="M2032.29,1845.36c-.36,246.36-17.26,493.21-60.67,736.08-10.99,60.67-23.73,121.04-38.92,180.85-15.23,59.78-32.81,119.04-54.34,176.98-21.71,57.79-46.9,114.75-81.06,166.8-17.22,25.84-36.74,50.6-60.84,70.96-12.05,10.12-25.27,19.09-39.82,25.67-14.52,6.53-30.39,10.67-46.5,10.95-16.09.47-32.19-2.68-47-8.64-14.86-5.91-28.41-14.47-40.75-24.26-24.67-19.73-44.63-44.22-62.15-69.85-34.77-51.69-60.31-108.53-82.24-166.23-21.8-57.84-39.55-117.05-54.91-176.8-15.33-59.76-28.2-120.11-39.29-180.76-22.12-121.32-37.2-243.81-47.38-366.63-10.11-122.84-15.17-246.08-15.79-369.34-.3-61.62,1.38-123.23,3.57-184.8,2.31-61.57,5.7-123.1,10.23-184.55,9.11-122.88,22.73-245.48,42.96-367.08,10.15-60.79,21.99-121.31,36.24-181.31,14.28-59.97,30.87-119.47,51.45-177.67,10.34-29.08,21.65-57.84,34.55-85.93,12.88-28.08,27.29-55.55,44.23-81.52,16.98-25.86,36.5-50.54,60.8-70.3,12.15-9.79,25.54-18.31,40.2-24.09,14.61-5.85,30.46-8.81,46.22-8.21,15.77.45,31.33,4.38,45.67,10.7,14.37,6.35,27.57,14.98,39.69,24.77,24.24,19.7,44.31,43.79,62.11,69.08,35.39,50.94,62.07,107.12,85.18,164.28,22.94,57.32,41.88,116.12,58.38,175.53,16.44,59.44,30.36,119.54,42.41,179.99,47.68,242.03,67.04,488.91,67.75,735.31ZM2014.05,1845.36c.23-122.75-4.44-245.54-14.64-367.86-10.06-122.32-25.29-244.29-47.99-364.91-11.34-60.3-24.54-120.26-40.24-179.56-15.76-59.27-33.96-117.93-56.11-175.07-22.31-56.98-48.18-112.96-82.52-163.54-17.26-25.11-36.73-48.96-60.09-68.36-11.68-9.64-24.35-18.12-38.07-24.36-13.7-6.17-28.46-10.21-43.48-10.6-15-.48-29.98,2.54-43.86,8.25-13.93,5.65-26.71,13.97-38.36,23.58-23.32,19.37-42.21,43.74-58.63,69.37-16.39,25.74-30.34,53.04-42.79,80.97-12.47,27.95-23.37,56.6-33.33,85.57-19.8,58-35.65,117.34-49.21,177.16-13.52,59.84-24.65,120.23-34.1,180.87-18.83,121.31-31.06,243.61-38.8,366.14-7.82,122.54-10.52,245.36-10.3,368.13-.32,122.75,3.78,245.53,12.9,367.94,9.2,122.39,23.28,244.48,44.36,365.37,10.56,60.43,22.9,120.55,37.68,180.05,14.81,59.48,31.99,118.4,53.13,175.85,21.26,57.29,46.12,113.66,79.73,164.42,16.91,25.17,36.15,49.05,59.47,67.97,11.65,9.39,24.33,17.52,38.04,23.08,13.67,5.58,28.33,8.68,43.02,8.18,14.69-.38,29.16-4.26,42.6-10.42,13.46-6.21,25.87-14.74,37.27-24.47,22.81-19.58,41.64-43.75,58.26-69.14,33.01-51.17,57.52-107.66,78.54-165.05,20.86-57.55,37.85-116.52,52.51-176.04,14.61-59.54,26.81-119.69,37.26-180.14,20.94-120.91,34.85-243.01,44.1-365.4,9.37-122.4,13.7-245.19,13.65-367.97Z"/>
        <path class="cls-8" d="M2653.77,1845.36c-.85,158.65-21.24,317.36-63.71,470.35-43.21,152.64-108.35,299.48-196.78,431.32-44.22,65.85-94.32,127.83-150.3,184.06-55.96,56.22-117.84,106.67-185.02,148.95-67.24,42.12-139.86,75.83-215.88,98.71-75.97,22.93-155.29,34.89-234.67,34.97-79.38,0-158.72-11.9-234.73-34.76-76.06-22.81-148.74-56.47-216.05-98.55-67.25-42.24-129.22-92.64-185.27-148.83-56.07-56.21-106.27-118.17-150.59-184.02-88.61-131.85-153.89-278.76-197.3-431.47-21.37-76.5-37.25-154.51-47.77-233.21-10.46-78.72-15.72-158.1-16.08-237.5.41-79.41,5.72-158.78,16.23-237.48,10.57-78.69,26.51-156.67,47.93-233.14,43.52-152.65,108.9-299.46,197.57-431.18,44.34-65.79,94.55-127.68,150.61-183.82,56.05-56.11,117.98-106.47,185.21-148.57,67.29-41.97,139.95-75.38,215.88-98.18,75.88-22.9,155.09-34.84,234.36-34.92,79.28.14,158.47,12.15,234.31,35.11,75.89,22.86,148.49,56.34,215.7,98.35,67.16,42.15,129,92.55,184.96,148.68,55.97,56.16,106.08,118.07,150.32,183.85,88.49,131.7,153.73,278.44,197.05,431.02,42.56,152.93,63.06,311.62,64.02,470.27ZM2632.86,1845.36c-.23-156.85-19.77-313.86-61.15-465.26-41.61-151.17-104.27-297.11-190.53-428.36-43.11-65.56-92.07-127.35-146.9-183.52-54.86-56.08-115.45-106.82-181.72-148.99-66.35-41.94-138-75.69-213.13-98.52-75.09-22.85-153.49-34.86-232.03-35.12-78.54.33-156.92,12.4-231.97,35.31-75.09,22.89-146.68,56.71-212.95,98.69-66.2,42.22-126.7,93-181.46,149.11-54.74,56.19-103.6,118-146.61,183.56-86.08,131.23-148.6,277.11-190.01,428.2-20.63,75.63-35.57,152.76-45.69,230.45-10.15,77.71-15.15,156.07-15.33,234.45.22,78.38,5.28,156.74,15.47,234.43,10.17,77.68,25.17,154.78,45.85,230.39,41.52,151.04,104.14,296.81,190.28,427.91,43.02,65.5,91.89,127.23,146.63,183.35,54.76,56.02,115.22,106.75,181.41,148.84,66.26,41.87,137.83,75.44,212.78,98.33,74.92,22.94,153.17,35.07,231.6,35.47,78.44-.33,156.71-12.38,231.67-35.26,75-22.82,146.63-56.34,212.95-98.17,66.25-42.04,126.8-92.73,181.66-148.73,54.83-56.09,103.8-117.82,146.92-183.31,86.32-131.11,149.08-276.95,190.8-428.06,41.48-151.35,61.13-308.33,61.46-465.18Z"/>
        <path class="cls-8" d="M386.38,1303.9l314.24-2.54,314.24-1.44,628.47-1.16,628.47,1.28,314.24,1.57,314.24,2.74c.51,0,.92.42.91.93,0,.5-.41.91-.91.91l-314.24,2.74-314.24,1.57-628.47,1.28-628.47-1.16-314.24-1.44-314.24-2.54c-.76,0-1.37-.63-1.36-1.39,0-.75.62-1.36,1.36-1.36Z"/>
        <path class="cls-8" d="M750.93,777.58c74.37-1.18,148.73-1.68,223.1-2.54l223.1-1.44c74.37-.61,148.73-.55,223.1-.74l223.1-.42,446.2,1.28,223.1,1.57c74.37.93,148.73,1.48,223.1,2.74.51,0,.91.43.91.94,0,.5-.41.9-.91.91-74.37,1.26-148.73,1.81-223.1,2.74l-223.1,1.57-446.2,1.28-223.1-.42c-74.37-.19-148.73-.12-223.1-.74l-223.1-1.44c-74.37-.85-148.73-1.36-223.1-2.54-.76-.01-1.36-.64-1.35-1.4.01-.74.61-1.34,1.35-1.35Z"/>
        <path class="cls-8" d="M277.18,1830.22l341.54-2.53,341.54-1.45,683.07-1.16,683.07,1.28,341.54,1.57,341.54,2.74c.51,0,.92.42.92.93,0,.5-.41.91-.92.92l-341.54,2.74-341.54,1.57-683.07,1.28-683.07-1.16-341.54-1.45-341.54-2.53c-.76,0-1.37-.63-1.36-1.38,0-.75.61-1.36,1.36-1.36Z"/>
        <path class="cls-8" d="M386.38,2356.54l314.24-2.54,314.24-1.44,628.47-1.16,628.47,1.28,314.24,1.57,314.24,2.74c.51,0,.92.42.91.93,0,.5-.41.91-.91.91l-314.24,2.74-314.24,1.57-628.47,1.28-628.47-1.16-314.24-1.44-314.24-2.54c-.76,0-1.37-.63-1.36-1.38,0-.75.62-1.36,1.36-1.36Z"/>
        <path class="cls-8" d="M2580.68,2889.05H795.9c-2.66,0-4.82-2.16-4.82-4.82s2.15-4.82,4.82-4.82h1784.79c2.66,0,4.82,2.16,4.82,4.82s-2.15,4.82-4.82,4.82Z"/>
      </g>
      <path class="cls-16" d="M2354.87,711.34h-326.23c-24.95,0-45.17-20.23-45.17-45.18v-327.11c0-23.54,18.07-43.13,41.53-45.03l347.58-28.13c27.38-2.22,50.39,20.32,48.74,47.74l-21.35,355.24c-1.43,23.85-21.2,42.47-45.09,42.47Z"/>
      <path class="cls-7" d="M2075.14,647.67c-8.76,0-17.3-3.36-23.71-9.4-6.9-6.5-10.86-15.67-10.86-25.15v-209.72c0-5.91,4.8-10.71,10.71-10.71s10.71,4.8,10.71,10.71v209.72c0,3.66,1.46,7.05,4.13,9.55,2.66,2.5,6.14,3.74,9.78,3.55l248.53-14.79c6.92-.42,12.35-6.18,12.35-13.11v-205.91c0-3.75-1.53-7.21-4.31-9.73-2.78-2.53-6.39-3.73-10.11-3.34l-206.73,20.47c-6.83.67-9.74,5.6-10.68,7.68-.94,2.09-2.68,7.54,1.34,13.09l78.85,108.82c2.47,3.42,6.31,5.39,10.53,5.43h.11c4.17,0,7.99-1.91,10.5-5.25l86.85-115.72c3.55-4.72,10.26-5.7,14.99-2.14,4.73,3.55,5.69,10.27,2.14,14.99l-86.85,115.72c-6.66,8.87-16.63,14.06-27.92,13.81-11.09-.09-21.18-5.3-27.69-14.28l-78.85-108.82c-7.35-10.14-8.68-23.02-3.54-34.44,5.14-11.43,15.65-18.98,28.11-20.22l206.73-20.47c9.71-.94,19.39,2.24,26.61,8.78,7.22,6.54,11.35,15.87,11.35,25.6v205.91c0,18.25-14.27,33.4-32.5,34.49l-248.52,14.79c-.68.04-1.36.06-2.04.06Z"/>
      <path class="cls-16" d="M1886.77,673.11v282.69c0,33.59-26.39,61.25-59.94,62.82l-353.52,16.61c-35.86,1.68-65.85-26.93-65.85-62.83v-299.3c0-34.74,28.16-62.89,62.89-62.89h353.52c34.74,0,62.89,28.16,62.89,62.89Z"/>
      <path class="cls-7" d="M1467.34,824.34c-11.94-70.04,13.39-108.96,36.74-129.29,43.95-38.25,122.32-47.09,199.7-22.54,75.82,24.07,129.27,93.76,119.15,155.35-4.01,24.42-24.76,77.81-128.72,86.29,21.8,10.47,51.38,23.4,78.53,31.01h.02c5.07,1.44,8.27,6.26,7.6,11.49-.67,5.19-4.95,9.03-10.17,9.14-3.06.06-6.92.12-11.49.12-64.66,0-269.03-10.5-291.37-141.55ZM1767.64,963.31h0,0ZM1769.78,946.91h.02-.02ZM1657.31,896.36c85.71,1.8,139.28-24.52,147.01-71.55,8.51-51.82-40.14-113.32-106.25-134.31-58.37-18.52-137.15-19.9-181.61,18.8-28.66,24.94-38.93,62.59-30.53,111.89,16.56,97.13,152.33,119.8,232.59,124.64-35.25-14.74-64.24-30.82-65.98-31.79l-32.93-18.36,37.7.69Z"/>
      <path class="cls-16" d="M33.67,1177.95l1545.84-6.76c14.78-.13,26.82,11.86,26.73,26.64l-3.3,541.09c-.09,14.88-12.38,26.78-27.26,26.33-136.31-4.06-1533.43-22-1560.14-20.88-26.4,1.1-12.06-426.2-8.12-540.86.49-14.18,12.06-25.44,26.24-25.56Z"/>
      <path class="cls-7" d="M1576.5,1744.33h-.18c-87.12-2.6-921.98-13.02-1323.2-18.03-117.31-1.46-200.59-2.5-222.79-2.81l-2.07-.03-.36-2.04c-9.48-53.49-9.32-232.33.47-517.18.1-2.97,2.52-5.32,5.5-5.34l1545.85-6.75c1.52,0,2.93.58,3.98,1.64,1.06,1.06,1.62,2.42,1.61,3.94l-3.3,541.1c-.02,3.04-2.49,5.52-5.51,5.52ZM32.48,1718.5c24.97.34,106.79,1.37,220.7,2.78,401.23,5.01,1236.13,15.43,1323.29,18.03h.15c.15,0,.38-.24.38-.53l3.3-541.1-.57-3.04v2.51s-1545.83,6.75-1545.83,6.75c-.28,0-.51.22-.52.51-9.66,280.96-9.96,458.52-.89,514.09Z"/>
      <path class="cls-6" d="M99.81,1317.69h0c0,14.63,4.88,26.49,10.9,26.49h592.14c6.02,0,10.9-11.86,10.9-26.49h0c0-14.63-4.88-26.49-10.9-26.49H110.72c-6.02,0-10.9,11.86-10.9,26.49Z"/>
      <path class="cls-6" d="M99.81,1408.01h0c0,14.63,4.88,26.49,10.9,26.49h592.14c6.02,0,10.9-11.86,10.9-26.49h0c0-14.63-4.88-26.49-10.9-26.49H110.72c-6.02,0-10.9,11.86-10.9,26.49Z"/>
      <path class="cls-6" d="M99.81,1498.33h0c0,14.63,4.88,26.49,10.9,26.49h592.14c6.02,0,10.9-11.86,10.9-26.49h0c0-14.63-4.88-26.49-10.9-26.49H110.72c-6.02,0-10.9,11.86-10.9,26.49Z"/>
      <path class="cls-6" d="M99.81,1588.65h0c0,14.63,4.88,26.49,10.9,26.49h592.14c6.02,0,10.9-11.86,10.9-26.49h0c0-14.63-4.88-26.49-10.9-26.49H110.72c-6.02,0-10.9,11.86-10.9,26.49Z"/>
      <circle class="cls-9" cx="863.78" cy="1336.36" r="103" transform="translate(-691.95 1002.2) rotate(-45)"/>
      <circle class="cls-9" cx="1119.77" cy="1336.36" r="103" transform="translate(-616.97 1183.21) rotate(-45)"/>
      <circle class="cls-9" cx="1375.77" cy="1339.73" r="103" transform="translate(-544.38 1365.21) rotate(-45)"/>
      <g>
        <path class="cls-12" d="M924.98,1314.59c3.19,7.75,4.96,16.24,4.96,25.14,0,36.54-29.62,66.16-66.16,66.16s-66.16-29.62-66.16-66.16,29.62-66.16,66.16-66.16c1.12,0,2.23.03,3.34.08v-16.77c-1.11-.04-2.22-.07-3.34-.07-45.8,0-82.92,37.13-82.92,82.92s37.12,82.92,82.92,82.92,82.92-37.12,82.92-82.92c0-11.28-2.26-22.02-6.33-31.82l-15.39,6.68Z"/>
        <path class="cls-12" d="M1153.9,1395.7c-10.21,6.44-22.29,10.18-35.25,10.18-36.54,0-66.16-29.62-66.16-66.16s29.62-66.16,66.16-66.16c1.12,0,2.23.03,3.34.08v-16.77c-1.11-.04-2.22-.07-3.34-.07-45.8,0-82.92,37.13-82.92,82.92s37.12,82.92,82.92,82.92c15.98,0,30.91-4.53,43.57-12.36l-8.31-14.58Z"/>
        <path class="cls-12" d="M1430.98,1376.93c-11.91,17.48-31.97,28.96-54.72,28.96-36.54,0-66.16-29.62-66.16-66.16s29.62-66.16,66.16-66.16c1.12,0,2.23.03,3.34.08v-16.77c-1.11-.04-2.22-.07-3.34-.07-45.8,0-82.92,37.13-82.92,82.92s37.12,82.92,82.92,82.92c28.33,0,53.34-14.21,68.3-35.89l-13.58-9.83Z"/>
      </g>
      <g class="cls-10">
        <path class="cls-9" d="M947.71,1482.99h-167.85c-10.54,0-19.08,8.54-19.08,19.08s8.54,19.08,19.08,19.08h167.85c10.54,0,19.08-8.54,19.08-19.08s-8.54-19.08-19.08-19.08Z"/>
        <path class="cls-9" d="M1203.7,1482.99h-167.85c-10.54,0-19.08,8.54-19.08,19.08s8.54,19.08,19.08,19.08h167.85c10.54,0,19.08-8.54,19.08-19.08s-8.54-19.08-19.08-19.08Z"/>
        <path class="cls-9" d="M1291.84,1521.14h167.85c10.54,0,19.08-8.54,19.08-19.08s-8.54-19.08-19.08-19.08h-167.85c-10.54,0-19.08,8.54-19.08,19.08s8.54,19.08,19.08,19.08Z"/>
        <path class="cls-9" d="M779.85,1542.34h167.85c10.53,0,19.08,8.55,19.08,19.08v112.34c0,10.53-8.55,19.08-19.08,19.08h-167.85c-10.53,0-19.08-8.55-19.08-19.08v-112.34c0-10.53,8.55-19.08,19.08-19.08Z"/>
        <path class="cls-9" d="M1035.85,1542.34h167.85c10.53,0,19.08,8.55,19.08,19.08v112.34c0,10.53-8.55,19.08-19.08,19.08h-167.85c-10.53,0-19.08-8.55-19.08-19.08v-112.34c0-10.53,8.55-19.08,19.08-19.08Z"/>
        <path class="cls-9" d="M1291.84,1542.34h167.85c10.53,0,19.08,8.55,19.08,19.08v112.34c0,10.53-8.55,19.08-19.08,19.08h-167.85c-10.53,0-19.08-8.55-19.08-19.08v-112.34c0-10.53,8.55-19.08,19.08-19.08Z"/>
      </g>
      <path class="cls-12" d="M3253.99,1439.86s259.14,143.55,280.58,386.51c21.44,242.96,1.78,1251.37-517.86,1499.56-519.64,248.2-1207.47,191-1470.76,163.86-263.29-27.13-409.27-206.07-441.88-329.27-32.61-123.2-85.28-582.14,191.69-730.18,276.97-148.04,567.88-374.84,858.56-595.68,290.68-220.84,788.85-581.34,1099.67-394.81Z"/>
      <path class="cls-11" d="M1377.44,2514.11s69.94,3.7,78.52,147.59c0,0-162.18,145.39-381.26,179.99-16.45,2.6,22.99-112.27,28.92-127.83,28.21-74.04,117.06-121.72,273.82-199.75Z"/>
      <path class="cls-11" d="M2165.12,2344.92h-147.59s-453-500.3-750.11-550.77c0,0-206.82,264,11.02,757.28,17.52,39.68,66.53,57.31,103.09,33.96,10.93-6.98,18.79-16.34,23.55-28.08l-17.52-421.18s386.41,337.96,453.58,403.18c67.17,65.22,408.57,25.47,323.98-194.39Z"/>
      <path class="cls-11" d="M738.21,3395.32c61.85-54.2,160.4-115.01,302.66-132.45l48.11,29.43s-30.68,45.25-86.73,93.05c-51.51,29.92-131.05,70.44-196.99,79.22-64.11,8.54-73.57-30.2-67.05-69.26Z"/>
      <path class="cls-11" d="M1103.62,2713.86c38.1,12.33,54.86,66.32,151.55,30.62,93.54-34.54,163.08-79.08,198.85-104.76.8,6.96,1.47,14.23,1.93,21.98,0,0-171,162.65-390.08,197.26-16.45,2.6-29.48-13.82-23.55-29.38,10.64-27.92,29.82-70.26,61.3-115.72Z"/>
      <path class="cls-11" d="M691.62,3441.6c12.19-13.86,27.76-29.77,46.59-46.28-6.51,39.06,2.94,77.8,67.05,69.26,65.94-8.78,145.48-49.31,196.99-79.22-64.56,55.06-162.79,113.5-286.77,110.07-27.54-.76-42.06-33.14-23.87-53.83Z"/>
      <path class="cls-11" d="M2159.72,2451.71l-691.17,7.48s-394.71,326.56-466.3,824.52c0,0-11.88,36.62,59.46,42.89,0,0,238.64-155.86,394.24-431.42,190.79-337.87,568.77-185.78,568.77-185.78,124.19-89.54,299.69-107.77,431.9-137.6l-296.9-120.09Z"/>
      <path class="cls-17" d="M2143.4,1894.94s-74.41,372.89-438.97,520.4l-129.68-15.28-30.6,48.79,304.19,9.69s260.02-102.99,397.78-383.61c4.55-9.27,80.41-165.91-102.72-179.99Z"/>
      <path class="cls-16" d="M2103.53,2445.61s84.61-230,102.8-453.48c0,0-61.9-53.2-100.59-76.15-12.53-7.43-17.26-23.15-10.93-36.27,28.45-58.93,200.47-290.31,213.35-293.52,70.04-17.48,357.28-154.06,559.59,122.67,86.82,118.76-17.23,484.34-411.12,862.94l-81.26,15.54-271.84-141.72Z"/>
      <path class="cls-17" d="M2429.56,2042.53s-235.08,278.34-535.62,319.03c0,0-77.67-70.81-135.43-45.53-57.76,25.28-136.95,136.88-136.95,136.88h385.9s364.89-12.86,547.22-234.12c-14.67-77.42-58.61-123.67-125.11-176.26Z"/>
      <path class="cls-17" d="M2566.7,1390.96l51.44,171.55c2.36,7.86-.55,16.37-7.32,21.01-24.76,16.96-89.49,50.69-178.27,17.91-10.15-3.75-17.11-13.23-17.99-24.02l-12.19-149.45,164.35-37Z"/>
      <path class="cls-17" d="M2265.51,1252.03s25.29,177.83,93.6,232.52c68.31,54.69,201.4,13.51,246.36-120.55l-89.57-229.22-250.39,117.26Z"/>
      <path class="cls-11" d="M2525.99,1283.11c-5.2,1.67-10.64-1.66-11.45-7.05-2.47-16.42-8.62-48.9-21.08-71.03,0,0,6.52-23.33-58.96,11.91-65.48,35.25-163.84,87.02-221.74,56.19-56.46-30.06-113.64-181.33,35.56-153.31,5.68,1.07,10.9-3.46,10.47-9.22-1.83-24.86.63-82.06,58.56-100.42,54.2-17.18,25.1,10.67,37.33,25.44,3.6,4.34-4.54-14.79,72.48-3.6,26.43,3.84,60.33-66.32,125.25-37.71,53.47,23.56,61.79,56.5,60.9,77.02-.29,6.65,6.46,11.16,12.51,8.37,16.38-7.54,42.72-11.46,67.95,20.15,34.88,43.71-14.97,81.61-29.92,91.54-2.45,1.63-3.97,4.33-3.99,7.27-.14,22.73-3.68,121.87-53.37,177.8-4.3,4.84-12.25,3.42-14.76-2.55l-38.26-91.16c-1.78-4.23-6.5-6.4-10.87-5l-16.6,5.35Z"/>
      <path class="cls-17" d="M2525.19,1301.62s23.36-95.16,58.85-64.26c35.49,30.9-9.25,98.9-49.91,111.86l-8.95-47.59Z"/>
      <path class="cls-3" d="M1640.98,2474.51l-173.27-577.84c-7.07-23.57-28.01-40.3-52.56-41.98l-233.94-16.01c-23.78-1.63-41.47,21.6-33.57,44.09l193.7,551.83c6.24,17.78,22.2,30.34,40.95,32.24l230.37,25.58,28.33-17.92Z"/>
      <path class="cls-1" d="M1321.42,2092.52c12.94,26.11,35.28,41.41,49.9,34.17,14.62-7.24,15.99-34.28,3.05-60.4-12.94-26.11-35.28-41.41-49.9-34.17-14.62,7.24-15.99,34.28-3.05,60.4Z"/>
      <path class="cls-2" d="M1612.65,2492.43c.38,0,.75,0,1.13-.03l490.86-24.81c12.13-.61,21.47-10.94,20.86-23.08-.61-12.14-10.99-21.68-23.08-20.86l-490.86,24.81c-12.13.61-21.47,10.94-20.86,23.08.6,11.76,10.31,20.89,21.95,20.89Z"/>
      <path class="cls-16" d="M2206.32,1996.03c2.14,0,3.91-1.75,3.89-3.91-.33-102.54,39.24-238.68,39.65-240.05.6-2.06-.57-4.22-2.64-4.83-2.1-.59-4.24.57-4.84,2.65-.41,1.37-40.3,138.58-39.95,242.27,0,2.14,1.75,3.88,3.89,3.88Z"/>
      <path class="cls-16" d="M2429.55,2046.42c1.15,0,2.29-.51,3.06-1.48,1.07-1.36,108.44-137.84,145.35-231.37.8-2.01-.2-4.27-2.19-5.05-2.01-.79-4.27.18-5.05,2.19-36.5,92.47-143.15,228.05-144.23,229.41-1.33,1.69-1.04,4.14.65,5.47.71.57,1.57.84,2.41.84Z"/>
      <path class="cls-16" d="M2580.63,2255.09l2.9-1.24c155.32-66.5,251.26-251.93,252.21-253.8.98-1.92.21-4.27-1.7-5.24-1.87-.97-4.22-.23-5.23,1.7-.94,1.83-94.43,182.51-245.45,248.93l-16-22.61c-1.27-1.77-3.7-2.16-5.43-.94-1.76,1.24-2.17,3.67-.94,5.43l19.65,27.77Z"/>
    </g>
  </g>
</svg>