<?xml version="1.0" encoding="UTF-8"?>
<svg id="OBJECTS" xmlns="http://www.w3.org/2000/svg" viewBox="0 0 500 500">
  <defs>
    <style>
      .cls-1 {
        fill: #71b0dd;
      }

      .cls-2 {
        fill: #f4f4f4;
      }

      .cls-3 {
        fill: #1f2937;
      }

      .cls-4 {
        fill: #3b82f6;
      }

      .cls-5 {
        fill: #f9fbfc;
      }

      .cls-6 {
        fill: #f7f7f7;
      }

      .cls-7 {
        fill: #22c55e;
      }
    </style>
  </defs>
  <path class="cls-3" d="M244.34,290.33v-44.9h-65.38v44.9c0,4.37-3.54,7.91-7.91,7.91h-5.56c-5.11,0-9.26,4.14-9.26,9.26h110.82c0-5.11-4.14-9.26-9.26-9.26h-5.56c-4.37,0-7.91-3.54-7.91-7.91Z"/>
  <rect class="cls-3" x="50.96" y="62.57" width="321.38" height="210.56" rx="9.65" ry="9.65"/>
  <path class="cls-5" d="M372.34,241.01H50.96v22.47c0,5.33,4.32,9.65,9.65,9.65h302.08c5.33,0,9.65-4.32,9.65-9.65v-22.47Z"/>
  <rect class="cls-5" x="63.15" y="74.76" width="297" height="155.15"/>
  <rect class="cls-4" x="63.15" y="168.43" width="297" height="61.49"/>
  <rect class="cls-5" x="93.35" y="74.98" width="233.3" height="89.61"/>
  <rect class="cls-1" x="108.12" y="95.06" width="108.86" height="6.43"/>
  <rect class="cls-1" x="107.78" y="108.84" width="108.86" height="6.43"/>
  <path class="cls-7" d="M153,126.91h-37.61c-4.2,0-7.6,3.4-7.6,7.6s3.4,7.6,7.6,7.6h37.61c4.2,0,7.6-3.4,7.6-7.6s-3.4-7.6-7.6-7.6Z"/>
  <rect class="cls-5" x="123.17" y="132.91" width="22.05" height="3.22"/>
  <path class="cls-5" d="M267.04,101.43c0,4.95-4.01,8.96-8.96,8.96s-8.96-4.01-8.96-8.96,4.01-8.96,8.96-8.96,8.96,4.01,8.96,8.96Z"/>
  <g>
    <path class="cls-5" d="M251.43,116.78c.54,0,.55-.85,0-.85s-.55.85,0,.85h0Z"/>
    <path class="cls-5" d="M258.78,136.07c.54,0,.55-.85,0-.85s-.55.85,0,.85h0Z"/>
    <path class="cls-5" d="M273.93,125.05c.54,0,.55-.85,0-.85s-.55.85,0,.85h0Z"/>
    <path class="cls-5" d="M290.01,117.24c.54,0,.55-.85,0-.85s-.55.85,0,.85h0Z"/>
    <path class="cls-5" d="M289.55,104.38c.54,0,.55-.85,0-.85s-.55.85,0,.85h0Z"/>
    <path class="cls-5" d="M277.15,97.03c.54,0,.55-.85,0-.85s-.55.85,0,.85h0Z"/>
    <path class="cls-5" d="M281.28,112.19c.54,0,.55-.85,0-.85s-.55.85,0,.85h0Z"/>
    <path class="cls-5" d="M250.05,131.02c.54,0,.55-.85,0-.85s-.55.85,0,.85h0Z"/>
    <path class="cls-5" d="M262.91,146.64c.54,0,.55-.85,0-.85s-.55.85,0,.85h0Z"/>
    <path class="cls-5" d="M295.98,122.75c.54,0,.55-.85,0-.85s-.55.85,0,.85h0Z"/>
    <path class="cls-5" d="M265.21,121.38c.54,0,.55-.85,0-.85s-.55.85,0,.85h0Z"/>
  </g>
  <g>
    <rect class="cls-5" x="107.78" y="174.58" width="52.48" height="44.53"/>
    <path class="cls-1" d="M140.32,187.77c0,3.48-2.82,6.31-6.31,6.31s-6.31-2.82-6.31-6.31,2.82-6.31,6.31-6.31,6.31,2.82,6.31,6.31Z"/>
    <rect class="cls-1" x="115.89" y="197.83" width="36.26" height="1.97"/>
    <rect class="cls-1" x="115.89" y="203.75" width="36.26" height="1.97"/>
  </g>
  <g>
    <rect class="cls-5" x="182.66" y="174.58" width="52.48" height="44.53"/>
    <path class="cls-1" d="M215.21,187.77c0,3.48-2.82,6.31-6.31,6.31s-6.31-2.82-6.31-6.31,2.82-6.31,6.31-6.31,6.31,2.82,6.31,6.31Z"/>
    <rect class="cls-1" x="190.77" y="197.83" width="36.26" height="1.97"/>
    <rect class="cls-1" x="190.77" y="203.75" width="36.26" height="1.97"/>
  </g>
  <g>
    <rect class="cls-5" x="257.54" y="174.58" width="52.48" height="44.53"/>
    <path class="cls-1" d="M290.09,187.77c0,3.48-2.82,6.31-6.31,6.31s-6.31-2.82-6.31-6.31,2.82-6.31,6.31-6.31,6.31,2.82,6.31,6.31Z"/>
    <rect class="cls-1" x="265.65" y="197.83" width="36.26" height="1.97"/>
    <rect class="cls-1" x="265.65" y="203.75" width="36.26" height="1.97"/>
  </g>
  <rect class="cls-3" x="11.34" y="216.94" width="140.3" height="178.79" rx="6.39" ry="6.39"/>
  <rect class="cls-4" x="18.79" y="226.81" width="125.4" height="163.89"/>
  <rect class="cls-5" x="18.79" y="224.39" width="125.4" height="68.95"/>
  <rect class="cls-1" x="26.51" y="235.86" width="51.44" height="3.45"/>
  <rect class="cls-1" x="26.35" y="242.35" width="51.44" height="3.45"/>
  <rect class="cls-1" x="26.35" y="249.66" width="51.44" height="3.45"/>
  <rect class="cls-1" x="26.35" y="257.65" width="24.83" height="3.45"/>
  <path class="cls-7" d="M50.6,269.23h-20.17c-2.25,0-4.08,1.83-4.08,4.08s1.83,4.08,4.08,4.08h20.17c2.25,0,4.08-1.83,4.08-4.08s-1.83-4.08-4.08-4.08Z"/>
  <rect class="cls-5" x="34.6" y="272.44" width="11.83" height="1.72"/>
  <g>
    <rect class="cls-5" x="42.68" y="300.21" width="74.5" height="44.53"/>
    <path class="cls-1" d="M86.24,313.4c0,3.48-2.82,6.31-6.31,6.31s-6.31-2.82-6.31-6.31,2.82-6.31,6.31-6.31,6.31,2.82,6.31,6.31Z"/>
    <rect class="cls-1" x="61.8" y="323.46" width="36.26" height="1.97"/>
    <rect class="cls-1" x="61.8" y="329.38" width="36.26" height="1.97"/>
  </g>
  <g>
    <rect class="cls-5" x="42.68" y="350.83" width="74.5" height="37.45"/>
    <path class="cls-1" d="M86.24,364.01c0,3.48-2.82,6.31-6.31,6.31s-6.31-2.82-6.31-6.31,2.82-6.31,6.31-6.31,6.31,2.82,6.31,6.31Z"/>
    <rect class="cls-1" x="61.8" y="374.08" width="36.26" height="1.97"/>
    <rect class="cls-1" x="61.8" y="379.99" width="36.26" height="1.97"/>
  </g>
  <path class="cls-3" d="M460.67,214.18h-240.91c-4.83,0-8.74,3.91-8.74,8.74v165.91h258.4v-165.91c0-4.83-3.91-8.74-8.74-8.74Z"/>
  <rect class="cls-3" x="190.77" y="385.86" width="298.89" height="10.08" rx="3.06" ry="3.06"/>
  <path class="cls-3" d="M460.36,217.87h-240.29c-2.98,0-5.4,2.42-5.4,5.4v163.09h251.08v-163.09c0-2.98-2.42-5.4-5.4-5.4Z"/>
  <rect class="cls-4" x="223.7" y="229.93" width="233.04" height="150.67"/>
  <circle class="cls-6" cx="331.44" cy="223.12" r="1.31"/>
  <path class="cls-2" d="M370.3,390.27h-50.24c-.66,0-1.2.54-1.2,1.2s.54,1.2,1.2,1.2h50.24c.66,0,1.2-.54,1.2-1.2s-.54-1.2-1.2-1.2Z"/>
  <rect class="cls-2" x="223.7" y="229.57" width="233.3" height="89.61"/>
  <rect class="cls-1" x="241.31" y="245.68" width="108.86" height="6.43"/>
  <rect class="cls-1" x="240.97" y="259.46" width="108.86" height="6.43"/>
  <path class="cls-7" d="M283.6,281.66h-37.61c-4.2,0-7.6,3.4-7.6,7.6s3.4,7.6,7.6,7.6h37.61c4.2,0,7.6-3.4,7.6-7.6s-3.4-7.6-7.6-7.6Z"/>
  <rect class="cls-5" x="253.77" y="287.66" width="22.05" height="3.22"/>
  <g>
    <path class="cls-5" d="M410.14,271.53c.54,0,.55-.85,0-.85s-.55.85,0,.85h0Z"/>
    <path class="cls-5" d="M417.49,290.83c.54,0,.55-.85,0-.85s-.55.85,0,.85h0Z"/>
    <path class="cls-5" d="M432.65,279.8c.54,0,.55-.85,0-.85s-.55.85,0,.85h0Z"/>
    <path class="cls-5" d="M448.73,271.99c.54,0,.55-.85,0-.85s-.55.85,0,.85h0Z"/>
    <path class="cls-5" d="M448.27,259.13c.54,0,.55-.85,0-.85s-.55.85,0,.85h0Z"/>
    <path class="cls-5" d="M435.87,251.78c.54,0,.55-.85,0-.85s-.55.85,0,.85h0Z"/>
    <path class="cls-5" d="M440,266.94c.54,0,.55-.85,0-.85s-.55.85,0,.85h0Z"/>
    <path class="cls-5" d="M408.77,285.77c.54,0,.55-.85,0-.85s-.55.85,0,.85h0Z"/>
    <path class="cls-5" d="M421.63,301.39c.54,0,.55-.85,0-.85s-.55.85,0,.85h0Z"/>
    <path class="cls-5" d="M454.7,277.51c.54,0,.55-.85,0-.85s-.55.85,0,.85h0Z"/>
    <path class="cls-5" d="M423.92,276.13c.54,0,.55-.85,0-.85s-.55.85,0,.85h0Z"/>
  </g>
  <g>
    <rect class="cls-5" x="243.09" y="329.54" width="52.48" height="44.53"/>
    <path class="cls-1" d="M275.63,342.72c0,3.48-2.82,6.31-6.31,6.31s-6.31-2.82-6.31-6.31,2.82-6.31,6.31-6.31,6.31,2.82,6.31,6.31Z"/>
    <rect class="cls-1" x="251.2" y="352.79" width="36.26" height="1.97"/>
    <rect class="cls-1" x="251.2" y="358.7" width="36.26" height="1.97"/>
  </g>
  <g>
    <rect class="cls-5" x="317.97" y="329.54" width="52.48" height="44.53"/>
    <path class="cls-1" d="M350.52,342.72c0,3.48-2.82,6.31-6.31,6.31s-6.31-2.82-6.31-6.31,2.82-6.31,6.31-6.31,6.31,2.82,6.31,6.31Z"/>
    <rect class="cls-1" x="326.08" y="352.79" width="36.26" height="1.97"/>
    <rect class="cls-1" x="326.08" y="358.7" width="36.26" height="1.97"/>
  </g>
  <g>
    <rect class="cls-5" x="387.89" y="329.54" width="52.48" height="44.53"/>
    <path class="cls-1" d="M420.43,342.72c0,3.48-2.82,6.31-6.31,6.31s-6.31-2.82-6.31-6.31,2.82-6.31,6.31-6.31,6.31,2.82,6.31,6.31Z"/>
    <rect class="cls-1" x="396" y="352.79" width="36.26" height="1.97"/>
    <rect class="cls-1" x="396" y="358.7" width="36.26" height="1.97"/>
  </g>
  <g>
    <g>
      <ellipse class="cls-4" cx="301.91" cy="96.37" rx="5.68" ry="12.59"/>
      <ellipse class="cls-4" cx="301.91" cy="130.26" rx="5.68" ry="12.59"/>
    </g>
    <g>
      <ellipse class="cls-4" cx="284.97" cy="113.32" rx="12.59" ry="5.68"/>
      <ellipse class="cls-4" cx="318.85" cy="113.32" rx="12.59" ry="5.68"/>
    </g>
    <g>
      <path class="cls-4" d="M288.37,83.79h3.86v3.86c0,8.82-7.16,15.98-15.98,15.98h-3.86v-3.86c0-8.82,7.16-15.98,15.98-15.98Z"/>
      <path class="cls-4" d="M311.59,83.79h3.86c8.82,0,15.98,7.16,15.98,15.98v3.86h-3.86c-8.82,0-15.98-7.16-15.98-15.98v-3.86h0Z"/>
      <path class="cls-4" d="M272.38,123h3.86c8.82,0,15.98,7.16,15.98,15.98v3.86h-3.86c-8.82,0-15.98-7.16-15.98-15.98v-3.86h0Z"/>
      <path class="cls-4" d="M327.58,123h3.86v3.86c0,8.82-7.16,15.98-15.98,15.98h-3.86v-3.86c0-8.82,7.16-15.98,15.98-15.98Z"/>
    </g>
  </g>
  <g>
    <g>
      <ellipse class="cls-4" cx="108.12" cy="247.7" rx="3.14" ry="6.96"/>
      <ellipse class="cls-4" cx="108.12" cy="266.44" rx="3.14" ry="6.96"/>
    </g>
    <g>
      <ellipse class="cls-4" cx="98.76" cy="257.07" rx="6.96" ry="3.14"/>
      <ellipse class="cls-4" cx="117.49" cy="257.07" rx="6.96" ry="3.14"/>
    </g>
    <g>
      <path class="cls-4" d="M100.63,240.74h2.14v2.14c0,4.88-3.96,8.84-8.84,8.84h-2.14v-2.14c0-4.88,3.96-8.84,8.84-8.84Z"/>
      <path class="cls-4" d="M113.48,240.74h2.14c4.88,0,8.84,3.96,8.84,8.84v2.14h-2.14c-4.88,0-8.84-3.96-8.84-8.84v-2.14h0Z"/>
      <path class="cls-4" d="M91.8,262.43h2.14c4.88,0,8.84,3.96,8.84,8.84v2.14h-2.14c-4.88,0-8.84-3.96-8.84-8.84v-2.14h0Z"/>
      <path class="cls-4" d="M122.32,262.43h2.14v2.14c0,4.88-3.96,8.84-8.84,8.84h-2.14v-2.14c0-4.88,3.96-8.84,8.84-8.84Z"/>
    </g>
  </g>
  <g>
    <g>
      <ellipse class="cls-4" cx="404.98" cy="251.01" rx="5.2" ry="11.52"/>
      <ellipse class="cls-4" cx="404.98" cy="282.02" rx="5.2" ry="11.52"/>
    </g>
    <g>
      <ellipse class="cls-4" cx="389.47" cy="266.52" rx="11.52" ry="5.2"/>
      <ellipse class="cls-4" cx="420.48" cy="266.52" rx="11.52" ry="5.2"/>
    </g>
    <g>
      <path class="cls-4" d="M386.79,239.5h9.32v9.32c0,4.88-3.96,8.84-8.84,8.84h-9.32v-9.32c0-4.88,3.96-8.84,8.84-8.84Z"/>
      <path class="cls-4" d="M413.84,239.5h9.32c4.88,0,8.84,3.96,8.84,8.84v9.32h-9.32c-4.88,0-8.84-3.96-8.84-8.84v-9.32h0Z"/>
      <path class="cls-4" d="M377.96,275.38h9.32c4.88,0,8.84,3.96,8.84,8.84v9.32h-9.32c-4.88,0-8.84-3.96-8.84-8.84v-9.32h0Z"/>
      <path class="cls-4" d="M422.68,275.38h9.32v9.32c0,4.88-3.96,8.84-8.84,8.84h-9.32v-9.32c0-4.88,3.96-8.84,8.84-8.84Z"/>
    </g>
  </g>
</svg>