<?xml version="1.0" encoding="UTF-8"?>
<svg id="Layer_1" xmlns="http://www.w3.org/2000/svg" version="1.1" viewBox="0 0 200 200">
  <!-- Generator: Adobe Illustrator 29.0.1, SVG Export Plug-In . SVG Version: 2.1.0 Build 192)  -->
  <defs>
    <style>
      .st0 {
        fill: none;
      }

      .st1 {
        fill: #1f2937;
      }
    </style>
  </defs>
  <path class="st0" d="M84,73.8c3.6.8,9.1.8,9.9,0,.5,0,.5-2.8.5-10.1,0-11.4,0-11.7-4.1-7.6-1.3,1.5-3.3,3.6-4.1,4.8-2.3,3-5.3,9.1-5.6,10.7,0,.8,1,1.5,3,1.8h.3v.5Z"/>
  <path class="st0" d="M137.8,174c-2.5-1.5-7.4-1.3-9.9,0-4.6,2.8-5.3,6.3-5.1,25.9h41.4c-18.5-18.8-24.9-25.1-26.6-26.1h.3v.3Z"/>
  <path class="st0" d="M112.2,74.1c2.3,0,2.3-.5,2.3-1.8-.3-2.8-4.8-10.7-8.9-15.5-3.8-4.3-4.8-4.6-4.8-1v17.8c.3.8,7.4.8,11.4,0h0v.5Z"/>
  <path class="st0" d="M65.5,70.5c.8,0,1.8.5,2.5.8s2.5.5,3.6.8c2.8,0,2.8.5,4.6-4.1,1.5-3.8,3-6.6,4.8-8.9,1.3-1.8,1.8-3,1-3s-1,.5-2,.8c-5.3,2.5-15.7,10.9-15.7,12.7s.5,1,1.3,1h0Z"/>
  <path class="st0" d="M54.8,93.1c1,.5,14.7,0,15.2,0s.8-2,1-4.3c.3-2,.8-5.1,1-6.9s.5-3.3.3-3.6c-.3-.8-2.5-1.5-7.1-2.3-1.8-.5-3.6-.8-4.1-1-1,0-1.5,0-2,1.3-.8,1.3-2,4.6-4.3,12.4-.8,2.5-.8,4.1,0,4.3h0Z"/>
  <path class="st0" d="M79.7,79.1c-.8,0-1.3,0-1.5,1-.5,1.3-1.5,8.9-1.5,11.4v1.8h8.9c8.1,0,8.9,0,9.1-.5.5-.8,0-11.9-.5-12.4s-12.2-1.3-14.5-1.3h0Z"/>
  <path class="st0" d="M119.3,68c1.4,3,2.5,4.5,3.3,4.3.8,0,2.5-.5,3.6-.8,5.8-1,6.6-1.5,5.8-3-1.3-2.3-10.1-9.1-14.7-11.4-3.6-1.8-3.8-1.8-4.1-1,0,.5.8,2,2,4.1,1.3,1.8,3,5.3,4.1,7.9h0Z"/>
  <path class="st0" d="M118.3,92.8c.3-.5.3-2.5,0-6.3-.8-6.1-1.3-7.4-3-7.4s-3.8,0-7.4.5c-3.6,0-6.6.5-6.9.8s-.5,2.5-.5,6.6v6.3h8.6c6.6,0,8.6,0,9.1-.5h0Z"/>
  <path class="st0" d="M94.4,99.9c-1.3-.5-17.5,0-17.8,0s0,3,1.3,10.1l.8,4.1h2c8.1-.5,14-1,14.2-1.5.3-.5.5-3.3.5-6.6,0-5.1,0-6.1-.8-6.1h-.3Z"/>
  <path class="st0" d="M124.1,77.9c-1.5,0-1.8,1-1,5.1.5,2,.8,5.1,1,6.9,0,2,.5,3.3.8,3.6s4.3.5,8.4,0h7.9v-2.8c0-2.5-.5-4.1-1.8-7.6-1.5-4.3-3.6-7.9-4.3-7.9,0,0-2.5.8-5.1,1.3-2.8.8-5.3,1.3-6.1,1.3h.3v.3Z"/>
  <path class="st0" d="M93.1,118.5c-.5,0-2.5,0-4.3.5-7.1.8-8.1,1-8.1,2s2.8,7.1,4.6,9.9c1.8,2.5,7.9,8.9,8.6,8.9s1-2.8,1-11.7-.3-9.9-2-9.9h.3v.3Z"/>
  <path class="st0" d="M69.3,116.2c1.5,0,2.8-.8,2.8-1.3s0-2-.5-4.1c-.3-1.8-.8-5.1-1-7.4l-.5-4.1h-16c-1.3.8.8,8.6,3.6,15l1.5,3h2.3c1.3-.5,3-.8,3.8-1,.8,0,2.5-.8,4.1-1h.3v.8h-.3Z"/>
  <path class="st0" d="M174.6,135.7c.8,1.3,3.3,4.3,7.4,8.1l14,14c1.5,1.5,2.8,3,4.3,4.3v-41.1c-13.4,0-18,.5-18.8.8-6.3,2.8-9.1,8.9-6.6,14.2h-.3v-.3Z"/>
  <path class="st0" d="M75.6,124c-.7-1.5-1.6-2.3-2.8-2.3-1.8,0-3,0-4.6.5-1.5,0-3,.8-3.6,1-1.3.8-1,1.5,2.8,4.8,2.5,2.3,4.1,3.3,9.6,6.9,2.5,1.5,5.1,2.5,5.1,1.5s-1-1.8-2-3.6c-2-3-3-4.8-4.6-8.9h0Z"/>
  <path class="st0" d="M101.3,99.9c-.5,0-.5,2-.5,6.6v6.3h5.3c2.8,0,6.3.8,7.9,1,2.8.5,2.8,0,3-.8.8-3.6,1.3-6.3,1.3-9.6v-3.6h-17Z"/>
  <path class="st0" d="M174.8,54.3c-1.5,2.8-1.8,6.3-.5,8.6,1,2,3.8,4.8,6.1,5.8,1.5.8,2.5,1,19.5,1V29.4c-4.6,4.6-8.6,8.4-10.1,9.9-5.8,5.3-13.7,13.4-15,15.5h0v-.5Z"/>
  <path class="st0" d="M68,174c-1.8-1.3-7.4-1.3-9.4,0-.8.5-5.8,5.1-10.9,10.4-5.3,5.6-10.9,10.9-15.7,15.7h40.6c0-19.5-.3-21.1-1-22.3-1-1.8-1.8-2.5-3.6-3.8h0Z"/>
  <path class="st0" d="M62.4,19.8c4.3.5,7.6-2,9.4-6.9.8-1.8,1-2.5,1-13.4h-33.2c9.6,9.6,13.4,13.7,15,15.5,2.5,3,4.8,4.3,8.4,4.8h-.5,0Z"/>
  <path class="st0" d="M192.9,185.2c-7.6-7.6-18.3-18.3-23.6-23.3-8.9-8.9-11.7-12.2-13.4-15.7-2-4.1-2.3-5.6-2.8-8.6-1.5-7.6-.5-13.4,3.6-21.3,1.3-2.5,2.5-4.3,5.6-7.1s5.3-4.8,10.1-6.6c4.8-2,7.6-2.5,27.7-2.5v-9.6h-19.3c-12.2-1.5-22.8-10.1-26.9-22.6-.8-2-.8-4.1-.8-8.6s0-6.6,1.3-9.9c.8-2,1.5-4.1,1.8-4.3.3-.5,1-1.5,1.5-2.5.5-1.3,9.1-10.1,22.8-23.8,7.4-7.4,14.2-14.2,18.8-18.8h-12.7c-3,2.8-6.3,6.1-10.4,9.9-4.8,4.6-9.4,9.4-10.4,10.7-2.8,3.6-10.9,11.9-14,14.2-9.6,6.9-21.3,8.1-31.2,3.6-6.9-3.3-12.2-8.4-15-13.7-2.8-5.3-3.6-8.4-3.6-24.4h-8.4c0,9.6-.3,16.5-.5,17.3-.3,1.3-1.3,4.3-2.5,6.6-1.8,3.6-2.8,4.8-5.8,8.1-6.1,6.1-12.2,8.9-20,9.1-9.1,0-14-1.5-22.1-7.6-2.5-2-3.6-2.8-9.1-9.4-3.6-4.3-8.4-9.1-17.8-18.5-1.5-1.5-3.6-3.6-5.6-5.6H-1v2.3c7.9,8.1,21.8,21.8,30.7,30.4,9.4,8.9,11.7,12.7,12.9,21.1s.8,5.3.3,8.9c-.3,2.3-.8,4.6-1,5.1,0,.5-.8,1.8-1,2.5-1,3.3-4.6,8.4-8.1,11.7-5.3,5.1-11.7,8.1-18,8.6H-1.5v9.6c14,0,18.5,0,20,.8,6.3,1.5,12.9,6.1,17.3,11.9,3.8,5.1,5.1,7.9,6.3,14.2.8,3,.8,4.3.3,8.6-.8,5.6-.8,6.3-3,10.9-2.3,4.6-4.8,7.6-15.5,18-5.1,5.1-14.7,14.7-21.8,21.3-1.5,1.5-2.8,2.8-4.1,3.8v10.7H1c3-3.3,7.6-7.9,12.7-12.9,9.9-9.9,20-20.3,23.1-23.3,9.4-9.6,14-11.9,24.6-11.9s5.8,0,7.1.5c9.1,2,19.3,11.2,22.1,20.3,1.5,4.8,1.8,7.1,1.8,27.4h8.1c0-10.7,0-14,.5-18.5.5-4.1,1-7.4,1.3-7.6s.5-.8.5-1.3,0-1.3.5-1.8c.3-.5,1-1.8,1.5-2.8,1.3-2.8,6.6-8.9,9.6-10.9,4.3-3.3,7.9-4.8,12.7-5.6,3-.5,11.7,0,14.2.5,3,.8,5.8,2,8.6,3.8,3,2,4.3,3.3,10.1,9.9,2.8,3,12.7,12.9,22.1,22.3l11.9,11.9h5.3v-8.1l-6.9-6.9.8-.5h-.5v.3ZM147.2,104.8c-1.3,6.9-1.5,8.1-4.1,13.2-4.1,8.1-9.6,14.7-16.7,19.3-8.9,5.8-14.2,7.9-25.1,8.6-5.8.5-8.9.5-14-.8-12.4-2.5-24.6-10.7-31.5-21.3-1.5-2.3-2.5-4.1-2.5-4.1,0,0-.8-2-1.8-4.1-1-2-1.8-4.3-1.8-4.6s-.3-2-.8-3.6c-2.5-10.4-1.8-19.8,2.5-29.9,1.8-4.6,2.8-6.1,6.9-11.2,3-3.8,7.4-8.1,10.1-10.1,6.9-4.6,8.6-5.6,10.9-6.6,1.5-.8,3.8-1.5,5.1-1.8,3-1,12.7-2,16-1.8h4.6c3.6,0,11.2,2.8,15.5,5.1,5.1,2.8,9.1,5.6,12.4,9.1,3.3,3.3,7.4,8.1,7.4,8.9s.3.8.8,1c1,.8,3.8,6.9,4.8,10.1,2,6.9,2.8,17.8,1.8,23.6h0l-.5.5v.3Z"/>
  <path class="st0" d="M125.1,100.2c-.5,0-.8,2-1,5.1-.3,2.5-.5,5.8-.8,7.4v2.8c-.3,0,2.5.8,2.5.8,1.5.5,3.6.8,4.3.8s2.3,0,3.3.8c3,1.3,3.6.8,5.8-5.6,2.3-6.6,3-11.4,2-11.9-1.3-.5-15,0-15.7,0h-.5,0Z"/>
  <path class="st0" d="M22.6,130.9c-.3-3.3-1.3-5.1-4.3-7.6-2.3-1.8-3.8-2.5-19-2.5v38.6c14.2-14.2,22.1-22.3,22.6-23.6.8-1.8,1-2.5.8-5.1h0v.3Z"/>
  <path class="st0" d="M123.8,13.2c.3,1.5,3,4.8,5.1,5.6,4.3,2,9.4,0,14.2-5.3,1.5-1.8,7.1-7.4,13.7-14h-33.7c0,7.1,0,11.4.3,11.7.3.5.5,1.3.8,2h-.3Z"/>
  <path class="st0" d="M114.5,121.5c1.3-2,0-2.5-7.9-3h-5.1c-.8.8-1,20.3,0,20.8.3,0,2-1.3,4.3-3.8,3-3,4.3-5.1,6.1-8.1,1.3-2.3,2-4.3,2-4.8s.3-1.3.5-1.5h0v.5Z"/>
  <path class="st0" d="M15.5,69.2l2.3-1.5c1.5-1,2.8-2.3,3.6-3.6,1.3-2,1.5-2.5,1.5-5.3s0-3.3-1.8-5.6c-1-1.3-5.8-6.1-10.7-10.9-4.8-4.8-9.4-8.9-9.9-9.6,0,0-.5-.5-1-1v37.3H15.8l-.3.3Z"/>
  <path class="st0" d="M126.4,121.2c-4.6-1-5.3-1-6.1,1-.5,1-.8,1.8-.8,2,0,.8-3.6,7.4-5.1,9.6-2.3,3.3-2.3,4.1-.5,3.6,1.8-.5,6.1-3,9.4-5.1,3.3-2,8.6-7.4,8.6-8.4s-1.3-1.3-5.8-2.5h0l.3-.3Z"/>
  <path class="st1" d="M33.8,23.6c5.8,6.6,6.6,7.4,9.1,9.4,8.4,6.1,12.9,7.9,22.1,7.6,7.6,0,14-3,20-9.1,3.3-3.3,4.1-4.6,5.8-8.1,1.3-2.3,2.3-5.3,2.5-6.6,0-.8.3-7.6.5-17.3h-20.8c0,10.9-.3,11.7-1,13.4-1.8,4.8-5.1,7.1-9.4,6.9-3.6,0-5.8-1.8-8.4-4.8-1.5-1.8-5.6-5.8-15-15.5H10.4c2.3,2.3,4.3,4.3,5.6,5.6,9.6,9.4,14.2,14.2,17.8,18.5h-.3.3Z"/>
  <path class="st1" d="M120.3,37.8c9.9,4.8,21.6,3.6,31.2-3.6,3.3-2.3,11.4-10.7,14-14.2,1-1.5,5.8-6.3,10.4-10.7,4.1-3.8,7.4-7.1,10.4-9.9h-29.7c-6.6,6.6-12.2,12.2-13.7,14-4.8,5.3-9.9,7.4-14.2,5.3-2-1-4.6-4.1-5.1-5.6,0-.8-.5-1.5-.8-2,0,0-.3-4.6-.3-11.7h-21.1c0,16.2,1,19,3.6,24.4,2.8,5.6,8.1,10.4,15,13.7h.3v.3Z"/>
  <path class="st1" d="M157.3,42.3c-.5,1-1.3,2-1.5,2.5s-1,2.3-1.8,4.3c-1.3,3.3-1.3,4.3-1.3,9.9s0,6.9.8,8.6c4.1,12.4,14.7,21.3,26.9,22.6h19.3v-20.8c-17.3,0-18,0-19.5-1-2.3-1-5.1-3.8-6.1-5.8-1.3-2.3-1-6.1.5-8.6,1.3-2,9.1-10.1,15-15.5,1.8-1.5,5.6-5.3,10.1-9.9V-.8h-1c-4.6,4.6-11.4,11.4-18.8,18.8-13.7,13.7-22.3,22.8-22.8,23.8h.3v.5h0Z"/>
  <path class="st1" d="M33.5,81.4c3.6-3.3,7.1-8.4,8.1-11.7.3-1,.8-2,1-2.5,0-.5.8-2.8,1-5.1.5-3.6.5-4.8-.3-8.9-1.3-8.4-3.8-12.4-12.9-21.1C21.3,23.6,7.4,9.6-.2,1.7v30.2c.5.5,1,1,1,1,.5.8,5.1,4.8,9.9,9.6,5.1,4.6,9.9,9.4,10.7,10.9,1.8,2.3,1.8,2.5,1.8,5.6s0,3.6-1.5,5.3c-1,1.5-2.3,2.8-3.6,3.6l-2.3,1.5H-.5v20.8H15.8c6.3-.5,12.7-3.6,18-8.6h0l-.3-.3Z"/>
  <path class="st1" d="M140.8,71.3c-.5,0-.8-.8-.8-1,0-.8-4.1-5.8-7.4-8.9-3.6-3.6-7.4-6.3-12.4-9.1-4.3-2.3-11.9-4.8-15.5-5.1h-4.6c-3.3,0-13.2.8-16,1.8-1.3.5-3.6,1.3-5.1,1.8-2.5,1-4.1,2-10.9,6.6-3,2-7.4,6.3-10.1,10.1-4.1,5.1-5.1,6.9-6.9,11.2-4.1,10.1-4.8,19.5-2.5,29.9.5,1.5.8,3,.8,3.6s.8,2.5,1.8,4.6c1,2,1.8,4.1,1.8,4.1l2.5,4.1c6.9,10.7,19.3,18.8,31.5,21.3,5.1,1,8.4,1.3,14,.8,10.7-1,16.2-2.8,25.1-8.6,7.1-4.8,12.7-11.4,16.7-19.3,2.5-5.3,3-6.3,4.1-13.2,1-5.8.3-16.7-1.8-23.6-1-3.3-3.8-9.4-4.8-10.1h0l.5-.5v-.3ZM86.5,61.1c1-1.3,2.8-3.6,4.1-4.8,2.5-2.7,3.9-.2,4.1,7.6,0,7.6,0,9.9-.5,10.1-1,.5-6.3.5-9.9,0-3-.5-3.3-.5-3-1.8,0-1.8,3.3-7.9,5.6-10.7h-.3v-.5ZM94.4,92.6c-.5.8-1.3.8-9.1.8h-8.9v-2c0-2.5,1.3-10.1,1.5-11.4.3-.8.8-1,1.5-1,2.5,0,14.2,1,14.5,1.3.5.5.8,11.7.5,12.4h0ZM79.9,56.8c1-.5,1.8-.8,2-.8.8,0,.3,1.3-1,3-1.8,2.5-3.3,5.1-4.8,8.9-1.3,2.8-2.8,4.3-4.6,4.1-1.3,0-2.8-.5-3.6-.8s-2-.5-2.5-.8c-.8,0-1.3-.8-1.3-1,0-1.8,10.4-10.1,15.7-12.7h0ZM54.6,89c2.5-7.9,3.6-11.2,4.3-12.4.8-1.3,1-1.5,2-1.3.8,0,2.5.8,4.1,1,4.6,1,6.9,1.8,7.1,2.3,0,0,0,2-.3,3.6s-.8,4.8-1,6.9-.8,4.1-1,4.3c-.8.5-14.2.5-15.2,0s-1-1.8,0-4.3h0ZM61.7,117.7h-2.3l-1.5-2.8c-2.8-6.3-4.8-14.2-3.6-15,.5,0,4.1-.5,8.4,0h7.6l.5,4.1c.3,2.3.8,5.6,1,7.4s.5,3.6.5,4.1-1.5.8-2.8,1.3c-1.5,0-3.3.8-4.1,1s-2.5.5-3.8.8h-.3v-.5l.3-.3ZM76.9,134.9c-5.6-3.6-7.1-4.6-9.6-6.9-3.6-3.3-4.1-4.1-2.8-4.8.8,0,2.3-.8,3.6-1,1.5,0,3.3-.5,4.6-.5s2.3.8,2.8,2.3c1.8,4.3,2.5,5.8,4.6,8.9,1.3,1.8,2,3.3,2,3.6,0,1-2.8,0-5.1-1.5h0ZM93.9,139.8c-.8,0-7.1-6.6-8.6-8.9-2-2.8-4.6-8.6-4.6-9.9s1-1.5,8.1-2c1.8,0,3.8,0,4.3-.5,1.8,0,2,1.3,2,9.9s-.3,11.7-1,11.7h-.3v-.3ZM94.7,112.6c-.5.8-6.1,1.3-14.2,1.5h-2l-.8-4.1c-1.3-7.1-1.8-9.6-1.3-10.1s16.7-.8,17.8,0c.8,0,.8,1.3.8,6.1s0,6.1-.5,6.6h.3ZM135.3,75.3c1,0,3,3.6,4.3,7.9,1.3,3.8,1.5,5.3,1.8,7.6v2.5h-16.2c-.5,0-.8-1.5-.8-3.6s-.5-4.8-1-6.9c-.8-4.1-.8-5.1,1-5.1s3.3-.8,6.1-1.3c2.8-.8,5.1-1.3,5.1-1.3h-.3ZM113.2,56c.3-.8.8-.8,4.1,1,4.6,2.3,13.4,9.1,14.7,11.4,1,1.8,0,2-5.8,3-1.3,0-3,.5-3.6.8-1.3,0-1.5,0-3.3-4.3-1-2.5-3-6.1-4.1-7.9-1-1.8-2-3.6-2-4.1h0ZM100.8,65.7v-9.9c0-3.6,1-3.6,4.8,1,4.3,4.8,8.6,12.7,8.9,15.5,0,1.3,0,1.5-2.3,1.8-4.1.5-11.2.5-11.4,0v-7.9h0v-.5ZM100.5,87c0-4.3,0-6.6.5-6.6s3.3-.5,6.9-.8c3.6,0,6.9-.5,7.4-.5,1.8,0,2.3,1.3,3,7.4.5,4.1.5,6.1,0,6.3s-2.5.5-9.1.5h-8.6v-6.6h0v.3ZM118.5,99.9v3.6c-.3,3.3-.8,6.1-1.5,9.6,0,.8-1.3,1-3,.8-1.5,0-5.1-.5-7.9-.8h-5.1v-6.6c-.3-4.8,0-6.3.3-6.6h17.3ZM105.8,136c-2.5,2.5-4.1,4.1-4.3,3.8-.8-.5-.8-20,0-20.8s1.8-.5,5.1,0c7.9.5,9.1,1,7.9,3-.3.5-.5,1.3-.5,1.5s-1,2.5-2,4.8c-1.5,3-3,5.1-6.1,8.1h0v-.5ZM123.6,132.2c-3.3,2.3-7.9,4.8-9.4,5.1-1.8.5-1.8,0,.5-3.6,1.5-2.3,5.1-8.9,5.1-9.6s.3-1,.8-2c.8-2,1.5-2,6.1-1,4.8,1.3,5.8,1.5,5.8,2.5s-5.3,6.3-8.6,8.4h0l-.3.3ZM138.8,111.6c-2,6.1-2.8,6.9-5.8,5.6-1-.5-2.5-.8-3.3-.8s-2.8-.5-4.3-.8l-2.8-.8v-2.8c.5-1.5.8-4.8,1-7.4.3-3,.8-4.8,1-5.1.8-.5,14.7-.5,15.7,0,1.3.5.5,5.3-2,11.9h.5,0Z"/>
  <path class="st1" d="M24.9,164.1c10.7-10.4,13.2-13.4,15.5-18,2.3-4.8,2.5-5.6,3-10.9.5-4.3.5-5.3-.3-8.6-1.3-6.3-2.5-9.1-6.3-14.2-4.6-6.1-11.2-10.4-17.3-11.9-1.8-.5-6.3-.8-20-.8v20.8c15.2,0,16.7.8,19,2.5,3.3,2.5,4.3,4.3,4.3,7.6.3,2.5,0,3.6-.8,5.1-.8,1.3-8.4,9.4-22.6,23.6v30.2c1.3-1.3,2.5-2.5,4.1-3.8,7.1-6.9,16.7-16.5,21.8-21.3h-.5v-.3Z"/>
  <path class="st1" d="M161.9,109.1c-3,3-4.3,4.8-5.6,7.1-3.8,7.9-4.8,13.7-3.6,21.3.5,3,1,4.3,2.8,8.6,1.8,3.6,4.6,6.9,13.4,15.7,5.3,5.3,16,15.7,23.6,23.3l6.9,6.9v-30.2l-4.3-4.3c-4.3-4.3-10.4-10.7-14-14-4.1-4.1-6.6-6.9-7.4-8.1-2.5-5.3.3-11.4,6.6-14.2.8-.5,5.6-.5,18.8-.8v-20.8c-20,0-23.1.8-27.7,2.5-5.1,2-6.3,3-10.1,6.6h.5v.3Z"/>
  <path class="st1" d="M182.7,188.5c-9.4-9.4-19.3-19.5-22.1-22.3-5.8-6.6-7.4-7.9-10.1-9.9-2.8-1.8-5.6-3-8.6-3.8-2.8-.8-11.2-1-14.2-.5-4.8.8-8.4,2.3-12.7,5.6-3,2.3-8.4,8.4-9.6,10.9-.5,1.3-1.3,2.5-1.5,2.8-.3.5-.5,1.3-.5,1.8s0,1-.5,1.3c-.3,0-.8,3.8-1.3,7.6-.5,4.6-.8,7.9-.5,18.5h21.1c-.5-19.8.5-23.3,5.1-25.9,2.5-1.5,7.4-1.5,9.9,0,2,1,8.4,7.4,26.6,26.1h30.2l-11.9-11.9h.8v-.3Z"/>
  <path class="st1" d="M91.9,172.5c-3-9.1-12.9-18.3-22.1-20.3-1.3,0-4.6-.5-7.1-.5-10.7,0-15.2,2.5-24.6,11.9-9.4,9.4-13.4,13.7-23.1,23.3-5.1,5.1-9.6,9.6-12.7,12.9h29.7c5.1-4.8,10.4-10.4,15.7-15.7,5.3-5.3,10.1-10.1,10.9-10.4,2-1,7.6-1,9.4,0,2,1.3,2.8,2,3.6,3.8s.8,2.8,1,22.3h21.1c0-20.3-.5-22.8-1.8-27.4h0Z"/>
</svg>