<?xml version="1.0" encoding="UTF-8"?>
<svg id="OBJECTS" xmlns="http://www.w3.org/2000/svg" viewBox="0 0 460.5 449.29">
  <defs>
    <style>
      .cls-1 {
        fill: #161c2c;
      }

      .cls-2 {
        fill: #1f2937;
      }

      .cls-3 {
        fill: #3b82f6;
      }

      .cls-4 {
        stroke: #c5dcea;
        stroke-width: 2.22px;
      }

      .cls-4, .cls-5, .cls-6 {
        fill: none;
      }

      .cls-4, .cls-6 {
        stroke-miterlimit: 10;
      }

      .cls-5 {
        stroke: #22c55e;
        stroke-linejoin: round;
        stroke-width: 2.85px;
      }

      .cls-5, .cls-6 {
        stroke-linecap: round;
      }

      .cls-7 {
        fill: #fff;
      }

      .cls-8 {
        fill: #c5dcea;
      }

      .cls-9 {
        fill: #c5dcea;
      }

      .cls-10 {
        fill: #d6e0fc;
      }

      .cls-11 {
        fill: #e5b389;
      }

      .cls-12 {
        fill: #e5b389;
      }

      .cls-6 {
        stroke: #161c2c;
        stroke-width: .87px;
      }
    </style>
  </defs>
  <ellipse class="cls-3" cx="230.25" cy="441.12" rx="230.25" ry="8.17"/>
  <path class="cls-3" d="M148.83,60.09c-.08-1.1-.13-2.2-.13-3.32,0-26.23,21.27-47.5,47.5-47.5s47.5,21.27,47.5,47.5c0,1.12-.05,2.22-.13,3.32h91.4v377.56H52.98V60.09h95.85Z"/>
  <rect class="cls-7" x="70.31" y="79.45" width="247.34" height="337.9" transform="translate(387.95 496.81) rotate(180)"/>
  <path class="cls-10" d="M147.88,66.34v21.6h96.19v-21.6h-29.36c-1.05-4.68-9.03-8.32-18.73-8.32s-17.68,3.64-18.73,8.32h-29.36ZM193.75,63.29c0-1.23,1-2.23,2.22-2.23s2.23,1,2.23,2.23-1,2.23-2.23,2.23-2.22-1-2.22-2.23Z"/>
  <rect class="cls-4" x="248" y="154.4" width="42.28" height="42.28" rx="7.11" ry="7.11" transform="translate(538.28 351.08) rotate(180)"/>
  <polyline class="cls-5" points="253.84 172.78 268.45 185.74 303.37 159.1"/>
  <rect class="cls-4" x="248" y="246.61" width="42.28" height="42.28" rx="7.11" ry="7.11" transform="translate(538.28 535.5) rotate(180)"/>
  <polyline class="cls-5" points="253.84 264.99 268.45 277.96 303.37 251.31"/>
  <rect class="cls-4" x="248" y="349.76" width="42.28" height="42.28" rx="7.11" ry="7.11" transform="translate(538.28 741.8) rotate(180)"/>
  <polyline class="cls-5" points="253.84 368.14 268.45 381.1 303.37 354.46"/>
  <rect class="cls-9" x="102" y="159.1" width="134.84" height="5.86" rx="1.15" ry="1.15" transform="translate(338.84 324.06) rotate(180)"/>
  <rect class="cls-9" x="126.56" y="112.99" width="134.84" height="5.86" rx="1.15" ry="1.15" transform="translate(387.95 231.84) rotate(180)"/>
  <rect class="cls-8" x="102" y="169.49" width="134.84" height="5.86" rx="1.15" ry="1.15" transform="translate(338.84 344.84) rotate(180)"/>
  <rect class="cls-9" x="147.69" y="179.89" width="89.14" height="5.86" rx="1.44" ry="1.44" transform="translate(384.53 365.63) rotate(180)"/>
  <rect class="cls-9" x="102" y="254.43" width="134.84" height="5.86" rx="1.15" ry="1.15" transform="translate(338.84 514.72) rotate(180)"/>
  <rect class="cls-9" x="102" y="264.82" width="134.84" height="5.86" rx="1.15" ry="1.15" transform="translate(338.84 535.5) rotate(180)"/>
  <rect class="cls-9" x="147.69" y="275.22" width="89.14" height="5.86" rx="1.44" ry="1.44" transform="translate(384.53 556.29) rotate(180)"/>
  <rect class="cls-9" x="102" y="357.58" width="134.84" height="5.86" rx="1.15" ry="1.15" transform="translate(338.84 721.01) rotate(180)"/>
  <rect class="cls-9" x="102" y="367.97" width="134.84" height="5.86" rx="1.15" ry="1.15" transform="translate(338.84 741.8) rotate(180)"/>
  <rect class="cls-9" x="147.69" y="378.36" width="89.14" height="5.86" rx="1.44" ry="1.44" transform="translate(384.53 762.58) rotate(180)"/>
  <path class="cls-11" d="M358.38,100.44s-1.52,6.74-2.18,12.83c-.65,6.09-4.13,14.57-3.05,20.66,1.09,6.09,5,13.92,11.09,15.88,6.09,1.96,13.49,1.96,18.05-1.31,4.57-3.26,6.96-8.27,6.96-8.27,0,0,7.83-3.05,5.87-11.31s-8.48-4.57-8.92-.87c-.44,3.7-.65,5.44-.65,5.44l-2.39-.87,1.74-10.44s-6.31-.65-2.18-19.14c0,0-3.92-.65-6.09-2.61,0,0-6.96,1.52-11.75,0-4.79-1.52-6.53,0-6.53,0Z"/>
  <path class="cls-2" d="M394.05,93.7s-3.05-10.88-16.31-10.66c-13.27.22-14.36,3.91-19.14,5.33-4.79,1.42-13.7,6.85-11.75,13.81,1.31,3.26,3.26,1.52,3.26,1.52,0,0-1.31,6.31,1.74,6.74,3.05.44,4.9-1.32,4.9-1.32h0c.71-4.65,1.62-8.68,1.62-8.68,0,0,1.74-1.52,6.53,0,4.79,1.52,11.75,0,11.75,0,2.18,1.96,6.09,2.61,6.09,2.61-4.13,18.49,2.18,19.14,2.18,19.14l-1.74,10.44,2.39.87s.22-1.74.65-5.44c.43-3.7,6.96-7.4,8.92.87s-5.87,11.31-5.87,11.31c0,0-.53,1.1-1.55,2.59,0,0,7.86.89,15.04-11.73,7.18-12.62,13.49-36.76-8.7-37.41Z"/>
  <path class="cls-6" d="M376.65,100.44s3.26-.65,5.22-3.05"/>
  <path class="cls-6" d="M382.74,103.05s3.05,1.96,6.09,0"/>
  <path class="cls-2" d="M327.56,188.75s7.83-20.71,12.47-22.82,23.16-7.77,23.16-7.77l16.07,1.31s25.03,5.22,30.17,9.28c5.14,4.06,15.58,37.12,15.58,37.12,0,0-10.44,7.83-22.33,6.38l-1.16,36.54s-12.33-.87-18.78,4.06c-6.45,4.93-17.76,16.24-42.41,4.64,0,0,3.77-20.59,4.06-30.45.29-9.86-.87-23.78-.87-23.78l-1.45,3.77s-12.18-2.32-14.5-18.27Z"/>
  <path class="cls-11" d="M363.19,149.41v8.75l-1.55.87s-1.6,6.24,3.34,6.82c4.93.58,9.86-1.74,14.28-6.38v-9.38s-5.81,2.9-16.07-.67Z"/>
  <path class="cls-3" d="M406.45,344.49c.44-10.44-4.93-95.71-4.93-95.71,0,0-12.33-.87-18.78,4.06-6.45,4.93-17.76,16.24-42.41,4.64,0,0-10.88,72.21-12.76,83.96-1.89,11.75-13.78,78.74-13.78,78.74,15.23,5.22,26.97,1.35,26.97,1.35l26.1-114.9c5.66,25.67,16.53,113.54,16.53,113.54,12.18,3.05,25.67,0,25.67,0,0,0-3.05-65.25-2.61-75.69Z"/>
  <path class="cls-1" d="M318.06,428.28s-7.76,3.45-15.78,5.9c-8.02,2.46-13.06,3.08-14.16,5.99s11.65,4.4,33.49,2.57c4.6-.57,7.36.4,7.81.49.45.09,8.18,0,8.18,0,0,0,.33-6.76-1.25-10.07-1.58-3.31-2.46-4.52-2.46-4.52,0,0-7.18,5.71-15.83-.38Z"/>
  <path class="cls-11" d="M318.06,428.28l1.19-6.56s7.65,1.92,15.77.78l-1.13,6.15s-5.47,5.98-15.83-.38Z"/>
  <path class="cls-1" d="M390.09,429.76s-1.97,7.22-.52,11.14c1.45,3.92,33.66,2.27,33.6,1.69-.06-.58.98-5.65-5.87-6.94-6.85-1.29-10.68-2.56-12.09-7.37-1.22-4.18-14.63-.7-15.11,1.48Z"/>
  <path class="cls-11" d="M390.42,429.24l-.78-7.99s9.9.42,13.99-.15l.45,5.87s-5.61-2.59-13.65,2.27Z"/>
  <path class="cls-11" d="M402.68,212.24l1.16,3.48s-5.44,11.31-7.83,19.58c-2.39,8.27-4.35,18.05-5.66,20.88-1.31,2.83-6.59,4.3-6.59,4.3,0,0,3.99,13.52,14.43,17.66,0,0,1.57-11.29,4.04-17.82,2.48-6.53,21.18-36.33,23.79-43.94,1.3-4.13-2.3-9.64-2.3-9.64,0,0-8.72,6.16-21.05,5.51Z"/>
  <path class="cls-12" d="M327.78,190.04l-4.42,7.41s-4.57-15.23-9.57-23.93c-4.2-7.31-5.33-11.54-5.59-12.7,0-.02.99-3.08,3.26-4.22,2.28-1.14,1.78-3.43,3.81-8.12,2.03-4.7,3.93-6.98,1.9-7.24-2.03-.25-5.71,3.55-6.6,5.71-.89,2.16-9.77,2.79-12.31-.63-2.54-3.43-2.16-9.77-3.55-12.31-1.4-2.54-2.92,1.14-2.92,3.43v6.09s-1.39-5.61-3.29-8.28-2.32.62-1.5,4.88c.78,4.01,1.95,9.42,6.67,13.39,3.15,2.66,4.45,7.39,4.9,9.57h0s.08.42.21,1.16h0c.84,4.65,4.03,22.21,6.1,31.03,2.39,10.22,10.66,28.93,19.14,30.67s18.05-18.92,18.05-18.92c0,0-10.73-1.55-14.28-16.98Z"/>
  <path class="cls-2" d="M343.52,203.25s-.87-10.44-1.45-17.4"/>
  <path class="cls-2" d="M402.68,212.24h-2.47s-6.82-13.2-8.85-23.78"/>
  <path class="cls-3" d="M366.86,306.64s-1.31-11.75-3.92-20.66"/>
  <path class="cls-6" d="M382.52,256.18s3.92,19.79,19.14,23.06"/>
</svg>