<?xml version="1.0" encoding="UTF-8"?>
<svg id="Layer_1" xmlns="http://www.w3.org/2000/svg" version="1.1" viewBox="0 0 481.43 607.76">
  <!-- Generator: Adobe Illustrator 29.0.1, SVG Export Plug-In . SVG Version: 2.1.0 Build 192)  -->
  <defs>
    <style>
      .st0 {
        fill: #cf7254;
      }

      .st1 {
        fill: #fb6447;
      }

      .st2 {
        fill: #04093b;
      }

      .st3 {
        fill: #6fa4ff;
      }

      .st4 {
        fill: #15233c;
      }

      .st5 {
        fill: #3b82f6;
      }

      .st6 {
        fill: #40506d;
      }

      .st7 {
        fill: #fbad50;
      }

      .st8 {
        fill: #fff;
      }

      .st9 {
        fill: #23c55e;
      }

      .st10 {
        fill: #e3937a;
      }

      .st11 {
        fill: #9a9a9b;
      }

      .st12 {
        fill: #fdc3a5;
      }

      .st13 {
        fill: #f9fafb;
      }

      .st14 {
        fill: #fbb296;
      }

      .st15 {
        fill: #f7f9fc;
      }

      .st16 {
        fill: #e4eaf4;
      }
    </style>
  </defs>
  <path class="st12" d="M330.22,205.64c-8.62.71-10.59-5.46-12.35-12.41-2.23-8.8-5.01-22.48,2.45-29.19-7.8,1.26-7.7,11.23-7.26,17.49.71,10.22,4.93,29.84,18.48,28.07,4.54,14.35,14.27,24.73,19.15,37.64-.16,1.92-4.36,3.7-5.92,4.31-1.45.57-3.8-.52-3.32,1.63,3.72.49,6.99-.71,10.56-1.32,5.72,20.27,9.26,40.98,15.67,61.25,3.28,10.38,8.15,20.96,10.92,31.34,4.64,17.43,3,36.65,3.13,54.65-2-.37-1.27,1.01-1.32,2.28-1.79,44.78-9.85,113.9-72.33,98.77l-10.2-4.32c2.91,4.55,8.46,8.55,13.56,10.2,25.45,8.27,57.22-10.3,72.93-29.68,4.22,26.61,22.41,48.26,38.03,69.27,15.59,20.96,32.02,41.33,47.81,62.14h-148.57c-3.16-10.65-8.3-21.25-13.52-31.05-3.63-6.81-7.49-13.72-12.22-19.79,2.93,8.39,6.63,16.81,10.44,24.88,4.16,8.8,8.89,17.32,13.32,25.96h-40.94c-.39-2.49-1.68-5.21-2.73-7.5-4.68-10.19-10.1-20.14-15.76-29.79,15.36-8.07,27.11-21.31,40.27-32.38,3.72-3.13,8.4-6.04,11.91-9.22.51-.47,2-1.55,1.65-2.31-8.14,3.66-15.91,8.64-23.26,13.71-8.34,5.75-26.05,22.05-34.9,23.2-20.31,2.66-50.69-12.6-67.57-23.44-11.51-7.39-22.79-16.05-32.36-25.79,4.95-7.13,13.38-11.88,21.4-14.78,22.48-8.13,46.2-5.54,69.68-5.93,4.05,7.96,9.63,14.5,16.2,20.45l10.21,6.62-6.25-6.62c-6.99-5.56-11.7-13.47-16.2-21.11,4.8-2.15,9.3-6,11.89-10.56,2.41,6.15,9.35,15.7,14.52,20.15,2.24,1.93,11.16,8.22,13.57,8.89,1.31.36,1.2-.96.98-1.63s-9.98-6.73-11.92-8.57c-8.09-7.68-15.91-21.5-17.15-32.7-.42-3.82.91-14.3,1.32-18.82,1.97-21.67,6.01-47.42,12.37-68.19,5.07-16.56,17.04-31.25,27.91-44.4,1.02,2.19,3.31,4.82,4.94,6.61,6.17,6.78,13.42,13.85,22.13,17.15l-25.75-25.09c.77-.92,5.21-6.45,5.23-6.88-2.22-10.25-4.13-20.64-5.23-31.09-.17-1.63.14-3.32,0-4.95,1.65-.46,1.13-1.81,1.33-2.96.88-5.07,1.76-16.18,4.31-20.12.57-.88,5.13-4.51,4.26-5.31-4.53.86-8.68.86-13.2,0-9.31-22.54-14.09-40.78-12.57-65.73.81-13.37,7.09-38.47,22.86-40.53,9.31-1.21,11.49,3.37,12.75,11.58,1.82,11.86,1.81,24.2,4.7,35.91ZM332.53,360.81v.66c.43-.22.43-.44,0-.66ZM315.36,525.89v.66c.43-.22.43-.44,0-.66ZM346.06,596.53c-5.26-14.15-12.56-27.45-19.69-40.72l-10.67-16.72c5.07,15.64,13.19,30.09,21.51,44.19l8.85,13.26Z"/>
  <path class="st4" d="M245.04,607.76c-3.46-4.19-6.88-14.89-10.61-18.11-3.59-3.1-16.4-8.04-21.53-10.82-17.13-9.28-33.51-20.12-47.77-33.45-25.48-23.83-43.42-55.08-68.95-78.96-23.11-6.17-67.12,1.21-70.95-32.05-1.28-11.07,2.4-22.5,2.46-33.5-10.12-8.11-22.77-11.1-26.52-24.98-3.94-14.57,2.35-31.59,15.81-38.78,1.2-.64,4.82-.84,2.05-2.2-1.66-.82-3.25-1.13-5.05-2.22-11.7-7.1-13.69-24.43-12.59-36.91,1.57-17.82,17.15-24.55,32.34-28.74l-7.44-2.12c-20.32-8.26-21.29-29.16-8.08-44.76,9.21-10.88,21.59-15.52,35.03-19.11.29-4.29,3.52-16.3,1.66-19.54-.74-1.28-3.79-3.43-5-4.91-9.39-11.54-17.56-30.84-7.2-44.19,5.26-6.79,12.89-8.04,20.77-9.74l13.27-99.51C79.06,8.13,92.23-1.72,107.39.25l180.71,22.66c17.13,3.34,33.33,18.05,32.91,36.48l-12.59,96.06c11.23-3.67,17.71.22,19.73,11.63,2.47,13.96,1.92,26.95,6.5,41.04,5.34,16.41,17.22,28.22,21.91,44.12,5.78,19.57,9.27,39.97,15.57,59.7,5.73,17.96,13.16,31.74,14.85,51.18,3.14,35.94-.5,73.55,5.39,109.51,4.81,29.37,27.01,54.53,44.54,77.62,14.65,19.3,30.03,38.08,44.5,57.51h-11.23c-15.79-20.8-32.22-41.17-47.81-62.14-15.63-21.01-33.82-42.65-38.03-69.27-3.87-24.42-2.46-52.32-2.64-77.26-.13-17.99,1.51-37.22-3.13-54.65-2.76-10.39-7.63-20.96-10.92-31.34-6.41-20.28-9.95-40.98-15.67-61.25-.48-1.72-.62-2.77-1.32-4.62-4.88-12.91-14.61-23.28-19.15-37.64-.4-1.26-1.04-2.82-1.32-3.96-2.89-11.72-2.88-24.05-4.7-35.91-1.26-8.21-3.44-12.79-12.75-11.58-15.77,2.05-22.05,27.16-22.86,40.53-1.52,24.95,3.27,43.19,12.57,65.73,3.12,7.55,1.51,11.1,1.98,18.82.18,2.95,1.07,6.79,1.32,9.58.14,1.63-.17,3.32,0,4.95,1.1,10.44,3.01,20.84,5.23,31.09-.03.43-4.46,5.96-5.23,6.88-.31.37-.84.74-1.32,1.32-10.86,13.15-22.84,27.84-27.91,44.4-6.36,20.76-10.4,46.51-12.37,68.19-.41,4.52-1.74,14.99-1.32,18.82-.44,1.22-1.87,3.74-2.64,4.62-2.91,3.33-10.29,8.11-14.53,9.24-.61.16-2.17.58-2.64.66-2.2.38-5.11-.33-7.52.6-28.25-3.96-56.63-6.96-84.92-10.51-.4-.05-1.59-1.19-2.64-.66l-42.26-4.96c12.57,12.04,22.55,26.33,33.69,39.61,28.17,33.58,57.57,59.45,98.98,76,5.64,7.74,10.49,16.07,14.57,24.71h-7.92ZM290.6,173.28c2.09-1.96,4.04-6.14,4.56-8.97,2.1-11.31,2.58-24.55,4.1-36.17,3.1-23.72,8.46-50.54,9.81-74.05.89-15.4-5.25-25.29-20.88-27.97-31.4-5.4-65.1-8.04-96.9-12.05-28.01-3.54-56.48-8.97-84.61-11.14-12.39-.95-20.98,4.32-26.1,15.49-8.94,57.17-15.74,114.82-23.17,172.28-3.53,27.28-7.75,55.04-10.55,81.89-.45,4.31-3.22,10.22.73,13.61,10.94-87.46,21.99-174.94,33.88-262.28,4.44-18.31,16.07-19.24,32.41-17.61,57.11,5.7,113.87,16.13,171.01,21.8,13.51,1.21,23.11,12.32,21.58,26.02l-15.87,119.16ZM157.84,16.82l-53.75-6.66c-9.24.75-16.05,7.12-18.56,15.84-16.26,118.29-30.14,236.9-43.96,355.53-.96,8.25-3.17,17.15-3.25,25.14-.11,10.6,2.44,17.54,13.09,21.31l181.95,23.04c10.21-.62,17.07-8.12,18.08-18.1,10.69-79.77,20.74-159.62,31.31-239.41,5.86-44.23,13.47-88.57,18.31-132.9,1.48-13.57.11-24.94-15.51-27.9-13.57-2.57-28.54-2.55-42.21-5.36h-1.61c-.1,5.83-3.56,11.52-9.57,12.56-22.45-2.29-44.84-5.12-67.2-8.11-7.04-2.2-7.58-8.53-7.14-14.99ZM214.58,29.92c1.01-.74.7-3.53-1.07-3.74-8.75-.74-17.52-2.91-26.27-3.45-4.51-.28-6.34,1.75-1.95,3.94,3.72-.52,28.09,4.12,29.28,3.25ZM41.66,148.85c-.25,5.86,3.88,13.5,6.6,18.49,1.08,1.98,1.78,4.32,3.3,6.27.53.69,4.61,5.01,5.28,4.29.41-10.82,2.56-21.6,3.97-32.35.71-5.44.93-11.13,1.98-16.51.1-.49.9-1.17.66-1.98-12.8-.64-23.3,8.49-21.79,21.79ZM40.34,209.6c-.55.22-1.5.09-2.43.51-5.63,2.53-11.98,6.2-15.4,11.37-1.04.81-1.2,1.13-1.98,1.98-3.97,4.33-7.84,11.61-7.97,17.57-.03,1.39.66,1.91.7,2.24.52,3.9,1.07,6.51,3.3,9.9,5.45,8.3,15.4,10.71,24.58,7.74,5.68-1.84,4.99-6.09,5.72-11.45,1.77-12.99,2.5-26.42,4.7-39.21.23-1.32.58-2.62.66-3.96-4.43-.74-8.06,1.78-11.88,3.3ZM35.05,383.92c-1.17.58-2.4,1.67-2.6,3-.79,22.57-15.85,55.97,16.21,62.96l184.26,23.14c12.17-.6,22.77-8.45,24.57-20.85l29.14-223.1-.66-15.51-1.89,9.66c-11.22,72.9-16.85,146.92-28.56,219.71-2.03,12.62-7.7,22.94-21.39,24.83-62.92-7.16-126.03-15.08-188.69-23.91-22.73-9.24-11.92-36.97-10.39-55.65.12-1.42-.04-2.87,0-4.29ZM302.48,304.02c-.37-6.27-.48-12.52-.66-18.81-.13-4.55-.07-9.13-.04-13.83l-5.9-11.59-3.97,33.98c.21,1.18,7.16,8.18,8.58,9.27.66.51.84,1.28,1.98.98ZM27.79,273.65c-2.17.09-2.56.86-3.96,1.32-7.67,2.5-14.65,6.45-17.35,14.67-3.17,9.64-2.02,23.41,2.83,32.21.56,1.02,1.28,1.76,1.98,2.64,2.2,2.76,4.49,5.64,8.4,6.46,14.54,3.02,23.9-12.54,25.27-24.95.32-2.85.19-7.62,0-10.56-.04-.65.06-1.33,0-1.98-.33-3.4-3.75-13.29-3.31-15.4.11-.53,1.07-.49,1.33-.9,1.06-1.67.58-4.23.66-6.16-5.22.05-11.42-.56-15.85,2.64ZM284.65,356.84c2.93-6.17,7.69-12.07,11.91-17.48,1.96-2.5,9.64-10.2,9.88-12.62.12-1.2-2.4-13.68-3.02-14.75-.53-.92-11.07-11.61-11.84-11.93-1.39-.58-.89.97-.96,1.65-1.81,17.31-5.19,34.9-6.65,52.13-.06.68-.44,3.13.68,2.99ZM40.33,345.62l2.64-21.13c-1.71.9-2.86,2.45-3.25,4.33-.51,2.46-1.65,11.68-1.4,13.85.15,1.31.62,2.49,2.01,2.94ZM23.17,339.68c-1.28.21-1.49.29-2.64.66-14.57,4.65-19.73,22.62-15.19,36.32.49,1.48.78,1.6,1.32,2.64,2.12,4.08,4.55,7.35,9.56,7.94,15.69,1.85,23.15-17.18,22.17-30.08-.48-6.27-4.01-11.8-3.32-18.14-3.33.25-7.02-.33-10.29-.03-.9.08-1.4.66-1.6.69Z"/>
  <path class="st10" d="M147.97,472.4c-2.85,4.1-6.49,8.24-7.6,13.19,2.64-3.52,5.62-6.66,8.6-9.88.75-.81,1.66-1.35,1.64-2.65,28.29,3.55,56.67,6.55,84.92,10.51,2.42-.93,5.32-.22,7.52-.6.58,3.5,2.34,7.38,3.96,10.56-23.47.39-47.2-2.2-69.68,5.93-8.02,2.9-16.46,7.66-21.4,14.78,9.58,9.74,20.86,18.4,32.36,25.79,16.88,10.84,47.26,26.1,67.57,23.44,8.85-1.16,26.56-17.46,34.9-23.2,7.35-5.07,15.13-10.04,23.26-13.71.35.76-1.14,1.84-1.65,2.31-3.51,3.18-8.18,6.09-11.91,9.22-13.17,11.07-24.91,24.31-40.27,32.38,5.66,9.66,11.08,19.61,15.76,29.79,1.05,2.29,2.34,5.01,2.73,7.5h-25.75c-4.09-8.65-8.93-16.97-14.57-24.71-41.41-16.55-70.81-42.41-98.98-76-11.14-13.28-21.12-27.56-33.69-39.61l42.26,4.96Z"/>
  <path class="st0" d="M321.63,607.76h-1.98c-4.43-8.65-9.17-17.17-13.32-25.96-3.81-8.07-7.51-16.49-10.44-24.88,4.74,6.07,8.6,12.98,12.22,19.79,5.22,9.8,10.36,20.4,13.52,31.05Z"/>
  <path class="st10" d="M262.86,482.31c-2.58,4.56-7.08,8.42-11.89,10.56-1.98-3.37-4.66-6.54-5.28-10.56,4.23-1.13,11.61-5.92,14.53-9.24,1.68,2.62,1.64,6.69,2.64,9.24Z"/>
  <path class="st0" d="M346.06,596.53l-8.85-13.26c-8.31-14.1-16.44-28.54-21.51-44.19l10.67,16.72c7.13,13.27,14.43,26.57,19.69,40.72Z"/>
  <path class="st0" d="M262.86,468.44c1.24,11.2,9.06,25.02,17.15,32.7,1.93,1.84,11.69,7.87,11.92,8.57s.32,1.99-.98,1.63c-2.41-.67-11.33-6.96-13.57-8.89-5.17-4.45-12.11-14-14.52-20.15-1-2.55-.96-6.63-2.64-9.24.77-.88,2.2-3.4,2.64-4.62Z"/>
  <path class="st0" d="M331.54,209.6c-13.56,1.77-17.77-17.84-18.48-28.07-.44-6.26-.54-16.23,7.26-17.49-7.46,6.7-4.68,20.39-2.45,29.19,1.76,6.94,3.73,13.12,12.35,12.41.28,1.15.92,2.7,1.32,3.96Z"/>
  <path class="st10" d="M302.48,264.4c4.52.87,8.68.87,13.2,0,.87.8-3.69,4.43-4.26,5.31-2.55,3.94-3.43,15.05-4.31,20.12-.2,1.15.32,2.5-1.33,2.96-.25-2.79-1.14-6.62-1.32-9.58-.47-7.72,1.13-11.27-1.98-18.82Z"/>
  <path class="st0" d="M245.7,482.31c.62,4.03,3.3,7.19,5.28,10.56,4.5,7.64,9.21,15.55,16.2,21.11l6.25,6.62-10.21-6.62c-6.57-5.95-12.15-12.49-16.2-20.45-1.62-3.18-3.38-7.06-3.96-10.56.47-.08,2.03-.5,2.64-.66Z"/>
  <path class="st0" d="M305.78,335.72l25.75,25.09c-8.7-3.3-15.96-10.38-22.13-17.15-1.63-1.79-3.93-4.43-4.94-6.61.48-.58,1.01-.95,1.32-1.32Z"/>
  <path class="st0" d="M352.01,251.86c-3.57.61-6.84,1.81-10.56,1.32-.48-2.14,1.87-1.06,3.32-1.63,1.56-.61,5.76-2.4,5.92-4.31.7,1.85.84,2.91,1.32,4.62Z"/>
  <path class="st0" d="M332.53,360.81c.43.22.43.44,0,.66v-.66Z"/>
  <path class="st10" d="M381.72,399.11c.18,24.94-1.23,52.83,2.64,77.26-15.7,19.37-47.48,37.95-72.93,29.68-5.1-1.66-10.66-5.65-13.56-10.2l10.2,4.32c62.48,15.13,70.54-53.99,72.33-98.77.05-1.27-.68-2.65,1.32-2.28Z"/>
  <path class="st10" d="M315.36,525.89c.43.22.43.44,0,.66v-.66Z"/>
  <path class="st6" d="M35.05,383.92c-.04,1.42.12,2.87,0,4.29-1.54,18.68-12.35,46.41,10.39,55.65,62.66,8.83,125.77,16.75,188.69,23.91,13.69-1.89,19.36-12.21,21.39-24.83,11.71-72.8,17.34-146.81,28.56-219.71l1.89-9.66.66,15.51-29.14,223.1c-1.8,12.4-12.4,20.25-24.57,20.85l-184.26-23.14c-32.07-7-17.01-40.39-16.21-62.96.2-1.33,1.43-2.42,2.6-3Z"/>
  <path class="st6" d="M290.6,173.28l15.87-119.16c1.53-13.7-8.06-24.81-21.58-26.02-57.14-5.67-113.9-16.1-171.01-21.8-16.34-1.63-27.97-.7-32.41,17.61-11.88,87.34-22.94,174.82-33.88,262.28-3.95-3.4-1.18-9.31-.73-13.61,2.8-26.85,7.03-54.61,10.55-81.89,7.43-57.45,14.23-115.11,23.17-172.28,5.12-11.16,13.71-16.44,26.1-15.49,28.13,2.16,56.59,7.6,84.61,11.14,31.8,4.01,65.5,6.66,96.9,12.05,15.63,2.69,21.77,12.58,20.88,27.97-1.36,23.51-6.71,50.33-9.81,74.05-1.52,11.63-2,24.87-4.1,36.17-.53,2.83-2.47,7-4.56,8.97Z"/>
  <path class="st14" d="M40.34,209.6c3.83-1.52,7.45-4.04,11.88-3.3-.08,1.34-.43,2.64-.66,3.96-1.78-1.17-1.26-.65-1.32.98-.38,9.48-2.77,21.7-5.47,30.86-4.77,16.25-13.17,17.25-28.21,11.08-2.23-3.4-2.78-6.01-3.3-9.9.23-6.77,6.15-14.72,12.54-16.85,2.12-.71,10.25-1.19,10.57-1.65,1.56-2.24-3.79-4.5-5.62-4.63-4.83-.35-6.16,2.12-10.22,3.32.78-.85.94-1.17,1.98-1.98,2.7-2.1,6.63-4.47,10.19-3.94,1.5.23,2.67,1.59,4.33,1.3-.44-3.5,2.04-6.22,3.3-9.25Z"/>
  <path class="st14" d="M27.79,273.65c4.66-.2,6.96,1.95,8.9,5.95,3.35,6.92,5.11,18.81,4.3,26.4-1.31,12.36-9.68,21.51-22.73,19.76-2.34-.31-4.75-2.48-6.99-1.27-.7-.89-1.42-1.62-1.98-2.64-.18-1.33-.43-2.64-.66-3.96,1.74-2.1,1.89-5.3,3.17-7.73,1.8-3.41,5.88-6.86,9.38-8.45,2.34-1.06,8-1.8,9.26-2.65.73-.5.45-1.18.64-1.64,1.23-2.95.25-5.22-2.3-7.27s-3.72-.84-6.28.01c-6.41,2.13-10.38,5.6-12.67,12.09-1.12,3.16-2.11,9.66-1.86,13-4.59-11.94,2.71-28.25,16.44-29.12-.22-3.53.85-7.89-.6-11.16,1.41-.46,1.79-1.23,3.96-1.32Z"/>
  <path class="st14" d="M23.17,339.68c15.1,4.42,14.15,31.15,3.25,39.23-5.96,4.41-13.26,2.12-19.75.39-.54-1.04-.83-1.16-1.32-2.64,1.23.04,1.45-.45,1.98-1.32,2.55-4.17,1.84-6.3,6.59-10.24,3.63-3.01,6.96-3.36,10.41-5.41,2.09-1.24-.4-4.9-1.98-5.65-7.63-3.64-13.47,6.18-15.69,12.06,0-.09-.73-.09-.7-1.62.11-5.94,7.4-14.9,13.85-14.95l.72-9.18c1.15-.37,1.36-.45,2.64-.66Z"/>
  <path class="st10" d="M284.65,356.84c-1.12.14-.74-2.31-.68-2.99,1.45-17.23,4.84-34.82,6.65-52.13.07-.69-.42-2.23.96-1.65.78.32,11.31,11.01,11.84,11.93.62,1.07,3.14,13.55,3.02,14.75-.24,2.42-7.93,10.12-9.88,12.62-4.22,5.4-8.98,11.31-11.91,17.48Z"/>
  <path class="st14" d="M62.79,129.04c-1.06,5.37-1.27,11.07-1.98,16.51-1.63-.33-1.45.72-1.78,1.83-1.82,6.2-3.39,19.02-10.77,19.96-2.73-4.98-6.86-12.63-6.6-18.49.02-.43.64-4.04.81-4.8,1.93-8.56,11.34-16.05,20.32-15.01Z"/>
  <path class="st10" d="M23.17,339.68c.19-.03.7-.6,1.6-.69,3.27-.31,6.97.28,10.29.03-.69,6.34,2.85,11.87,3.32,18.14.99,12.9-6.48,31.94-22.17,30.08-5-.59-7.43-3.86-9.56-7.94,6.49,1.73,13.8,4.03,19.75-.39,10.91-8.08,11.85-34.81-3.25-39.23Z"/>
  <path class="st15" d="M302.48,304.02c-1.15.3-1.32-.48-1.98-.98-1.42-1.09-8.37-8.09-8.58-9.27l3.97-33.98,5.9,11.59c-.03,4.7-.09,9.28.04,13.83.17,6.29.29,12.54.66,18.81Z"/>
  <path class="st12" d="M23.83,274.97c1.45,3.28.37,7.64.6,11.16-13.73.86-21.04,17.18-16.44,29.12.01.14.52,1.8.66,2.64.23,1.32.48,2.64.66,3.96-4.85-8.8-5.99-22.57-2.83-32.21,2.7-8.22,9.68-12.17,17.35-14.67Z"/>
  <path class="st10" d="M51.57,210.26c-2.2,12.78-2.94,26.22-4.7,39.21-.73,5.36-.04,9.61-5.72,11.45-9.18,2.97-19.12.56-24.58-7.74,15.03,6.16,23.43,5.16,28.21-11.08,2.69-9.16,5.08-21.38,5.47-30.86.07-1.63-.46-2.15,1.32-.98Z"/>
  <path class="st10" d="M27.79,273.65c4.43-3.21,10.63-2.59,15.85-2.64-.09,1.93.4,4.48-.66,6.16-.26.41-1.22.37-1.33.9-.43,2.11,2.98,12,3.31,15.4-1,.09-1,1.89,0,1.98.19,2.95.32,7.71,0,10.56h-3.96c.81-7.59-.95-19.48-4.3-26.4-1.94-4-4.24-6.16-8.9-5.95Z"/>
  <path class="st0" d="M44.96,306c-1.38,12.41-10.73,27.97-25.27,24.95-3.91-.81-6.21-3.69-8.4-6.46,2.24-1.21,4.65.95,6.99,1.27,13.04,1.76,21.41-7.4,22.73-19.76h3.96Z"/>
  <path class="st12" d="M20.53,340.34l-.72,9.18c-6.45.05-13.74,9-13.85,14.95-.03,1.53.7,1.54.7,1.62.07,2.94-.6,6.73.66,9.24-.53.87-.75,1.37-1.98,1.32-4.55-13.7.61-31.67,15.19-36.32Z"/>
  <path class="st0" d="M60.81,145.55c-1.41,10.75-3.55,21.53-3.97,32.35-.67.72-4.75-3.6-5.28-4.29-1.52-1.95-2.22-4.29-3.3-6.27,7.38-.94,8.96-13.76,10.77-19.96.32-1.1.15-2.15,1.78-1.83Z"/>
  <path class="st16" d="M20.53,223.47c4.06-1.19,5.39-3.67,10.22-3.32,1.84.13,7.18,2.39,5.62,4.63-.32.46-8.45.94-10.57,1.65-6.38,2.13-12.31,10.08-12.54,16.85-.04-.33-.73-.85-.7-2.24.12-5.96,3.99-13.25,7.97-17.57Z"/>
  <path class="st12" d="M40.34,209.6c-1.27,3.03-3.74,5.74-3.3,9.25-1.66.29-2.83-1.08-4.33-1.3-3.56-.53-7.49,1.84-10.19,3.94,3.41-5.18,9.77-8.85,15.4-11.37.93-.42,1.88-.3,2.43-.51Z"/>
  <path class="st12" d="M41.66,148.85c-1.51-13.29,8.98-22.42,21.79-21.79.24.81-.56,1.49-.66,1.98-8.98-1.04-18.39,6.45-20.32,15.01-.17.77-.79,4.38-.81,4.8Z"/>
  <path class="st6" d="M40.33,345.62c-1.4-.45-1.86-1.63-2.01-2.94-.25-2.18.89-11.4,1.4-13.85.39-1.89,1.54-3.44,3.25-4.33l-2.64,21.13Z"/>
  <path class="st0" d="M150.61,473.06c.02,1.3-.89,1.84-1.64,2.65-2.98,3.23-5.96,6.36-8.6,9.88,1.11-4.96,4.75-9.09,7.6-13.19,1.05-.53,2.24.61,2.64.66Z"/>
  <path class="st0" d="M44.96,295.44c-1-.09-1-1.89,0-1.98.06.65-.04,1.33,0,1.98Z"/>
  <path class="st16" d="M22.51,290.16c4.36-.14,7.81,3.1,8.58,7.26-.19.46.09,1.14-.64,1.64-1.26.86-6.92,1.59-9.26,2.65-3.5,1.59-7.58,5.04-9.38,8.45-1.28,2.42-1.43,5.63-3.17,7.73-.14-.84-.65-2.51-.66-2.64-.25-3.34.74-9.84,1.86-13,2.3-6.49,6.26-9.96,12.67-12.09Z"/>
  <path class="st10" d="M31.1,297.42c-.77-4.16-4.23-7.4-8.58-7.26,2.56-.85,3.83-1.99,6.28-.01s3.53,4.32,2.3,7.27Z"/>
  <path class="st16" d="M6.66,366.09c2.22-5.88,8.07-15.7,15.69-12.06,1.57.75,4.07,4.4,1.98,5.65-3.46,2.05-6.78,2.4-10.41,5.41-4.75,3.95-4.04,6.08-6.59,10.24-1.26-2.51-.6-6.3-.66-9.24Z"/>
  <path class="st15" d="M250.98,272.99v.66c-2.85-.35-6.26-.07-9.24-.66,4.7-4.55,3.76-6.96,9.24,0Z"/>
  <rect class="st9" x="104.68" y="52.03" width="61.4" height="14.36" rx="7.18" ry="7.18" transform="translate(10.24 -19.37) rotate(8.5)"/>
  <g>
    <path class="st8" d="M111.26,51.8c.43-.03,1.03.01,1.59.1.88.13,1.41.38,1.75.81.28.34.39.81.31,1.32-.13.87-.74,1.36-1.44,1.5v.03c.46.25.68.76.73,1.46.07.95.13,1.6.22,1.87l-.85-.13c-.07-.2-.13-.79-.19-1.63-.05-.93-.34-1.32-1.08-1.47l-.77-.12-.43,2.84-.82-.12.97-6.47ZM111.63,54.91l.84.12c.87.13,1.5-.28,1.62-1.03.13-.85-.41-1.31-1.27-1.44-.39-.06-.68-.06-.82-.04l-.36,2.39Z"/>
    <path class="st8" d="M116.15,56.9c-.15,1.16.49,1.74,1.32,1.87.59.09.97.04,1.3-.05l.05.63c-.31.09-.83.17-1.56.07-1.4-.21-2.09-1.29-1.88-2.71.21-1.42,1.19-2.42,2.51-2.22,1.49.22,1.68,1.63,1.55,2.5-.03.18-.06.31-.09.4l-3.2-.48ZM118.66,56.65c.09-.54,0-1.42-.94-1.56-.84-.12-1.32.62-1.48,1.2l2.42.36Z"/>
    <path class="st8" d="M120.58,56.3c.07-.49.12-.89.15-1.28l.73.11-.07.79h.02c.29-.41.88-.77,1.64-.66.63.09,1.55.63,1.31,2.25l-.42,2.81-.83-.12.41-2.72c.11-.76-.07-1.43-.85-1.55-.54-.08-1.03.25-1.24.71-.05.1-.09.24-.12.39l-.42,2.83-.83-.12.51-3.44Z"/>
    <path class="st8" d="M130.24,54.19l-.85,5.69c-.06.42-.12.9-.14,1.22l-.74-.11.09-.82h-.02c-.33.48-.95.8-1.69.69-1.1-.16-1.8-1.25-1.59-2.69.22-1.57,1.31-2.39,2.42-2.23.7.1,1.11.52,1.26.93h.02s.42-2.81.42-2.81l.83.12ZM128.8,58.18c.02-.11.03-.25.02-.37-.04-.56-.42-1.08-1.04-1.17-.86-.13-1.48.57-1.64,1.62-.14.95.19,1.81,1.08,1.94.56.08,1.12-.22,1.37-.84.05-.11.07-.23.09-.36l.12-.82Z"/>
    <path class="st8" d="M130.58,61.31l.7-4.71.83.12-.7,4.71-.83-.12ZM132.4,55.41c-.03.29-.28.5-.61.45-.29-.04-.46-.31-.42-.6.05-.3.3-.5.6-.46.31.05.47.31.43.61Z"/>
    <path class="st8" d="M133.29,58.2c.07-.49.12-.89.15-1.28l.72.11-.08.77h.03c.32-.41.81-.76,1.56-.65.62.09,1.03.55,1.15,1.14h.02c.18-.24.39-.42.6-.53.3-.17.62-.25,1.06-.18.6.09,1.43.63,1.19,2.27l-.42,2.77-.81-.12.4-2.67c.14-.9-.1-1.5-.77-1.6-.47-.07-.89.24-1.09.63-.05.11-.11.26-.13.42l-.44,2.91-.81-.12.42-2.82c.11-.75-.13-1.34-.76-1.44-.52-.08-.96.3-1.15.7-.07.12-.11.26-.13.41l-.43,2.84-.81-.12.51-3.44Z"/>
    <path class="st8" d="M140.62,62.81l.7-4.71.83.12-.7,4.71-.83-.12ZM142.44,56.91c-.03.29-.28.5-.61.45-.29-.04-.46-.31-.42-.6.05-.3.29-.5.6-.46.31.05.47.31.43.61Z"/>
    <path class="st8" d="M143.61,61c-.15,1.16.49,1.74,1.32,1.87.59.09.97.04,1.3-.05l.05.63c-.31.09-.83.17-1.56.07-1.4-.21-2.1-1.29-1.88-2.71.21-1.42,1.19-2.42,2.51-2.22,1.49.22,1.68,1.63,1.55,2.5-.03.18-.06.31-.09.4l-3.2-.48ZM146.12,60.75c.09-.54,0-1.42-.94-1.56-.84-.12-1.32.62-1.48,1.2l2.42.36Z"/>
    <path class="st8" d="M148.04,60.4c.07-.49.12-.89.15-1.28l.73.11-.07.79h.02c.29-.41.89-.77,1.64-.66.63.09,1.55.63,1.31,2.25l-.42,2.81-.83-.12.41-2.72c.11-.76-.07-1.43-.85-1.55-.54-.08-1.03.25-1.24.71-.05.1-.09.24-.12.39l-.42,2.83-.83-.12.51-3.44Z"/>
    <path class="st8" d="M154.61,58.7l-.2,1.35,1.18.18-.1.65-1.18-.18-.38,2.54c-.09.58.02.94.48,1.01.22.03.38.03.49.01l-.06.65c-.17.04-.43.05-.75,0-.39-.06-.68-.23-.84-.49-.2-.29-.22-.72-.14-1.27l.38-2.57-.71-.11.1-.65.71.11.17-1.13.84-.1Z"/>
    <path class="st8" d="M160.23,63.29c-.26,1.74-1.54,2.33-2.64,2.16-1.23-.18-2.04-1.26-1.82-2.75.24-1.58,1.37-2.35,2.63-2.16,1.31.2,2.04,1.31,1.83,2.75ZM156.62,62.8c-.15,1.03.3,1.9,1.11,2.02.79.12,1.5-.56,1.66-1.62.12-.8-.11-1.87-1.09-2.01-.98-.15-1.54.72-1.68,1.62Z"/>
  </g>
  <rect class="st5" x="170.13" y="61.77" width="42.91" height="12.97" rx="6.48" ry="6.48" transform="translate(12.2 -27.58) rotate(8.5)"/>
  <g>
    <path class="st8" d="M183.25,69.6c.33.29.84.56,1.4.65.84.12,1.39-.26,1.49-.92.09-.61-.19-1.01-1-1.48-.98-.53-1.53-1.19-1.4-2.11.15-1.02,1.08-1.66,2.32-1.47.65.1,1.1.32,1.35.53l-.33.66c-.19-.15-.58-.41-1.16-.49-.87-.13-1.27.36-1.34.8-.09.61.25.97,1.07,1.45,1.01.59,1.47,1.21,1.33,2.17-.15,1.01-1,1.78-2.5,1.56-.61-.09-1.25-.38-1.55-.66l.31-.68Z"/>
    <path class="st8" d="M191.58,68.76l-2.46-.37-.35,2.37,2.75.41-.11.71-3.56-.53.98-6.56,3.42.51-.11.71-2.6-.39-.31,2.07,2.46.37-.1.7Z"/>
    <path class="st8" d="M198.38,69.49c-.34,2.26-1.84,3.26-3.46,3.02-1.67-.25-2.65-1.77-2.35-3.75.31-2.08,1.77-3.26,3.46-3.01,1.73.26,2.64,1.8,2.35,3.74ZM193.45,68.87c-.21,1.4.34,2.77,1.62,2.96,1.3.19,2.22-.93,2.44-2.42.19-1.3-.26-2.77-1.62-2.97-1.35-.2-2.22.99-2.44,2.43Z"/>
  </g>
  <rect class="st3" x="218.5" y="69.74" width="52.72" height="12.97" rx="6.48" ry="6.48" transform="translate(13.96 -35.37) rotate(8.5)"/>
  <g>
    <path class="st8" d="M231.58,75.16l-.97,1.97-.85-.13,3.14-6.24.99.15,1.18,6.88-.88-.13-.37-2.16-2.25-.34ZM233.76,74.81l-.34-1.98c-.08-.45-.11-.85-.15-1.25h-.02c-.15.37-.32.76-.5,1.14l-.9,1.8,1.91.29Z"/>
    <path class="st8" d="M236.46,74.49c.07-.49.12-.89.15-1.28l.73.11-.07.79h.02c.29-.41.88-.77,1.64-.66.63.09,1.55.63,1.31,2.25l-.42,2.81-.83-.12.41-2.72c.11-.76-.06-1.43-.85-1.55-.54-.08-1.03.25-1.24.71-.05.1-.09.24-.12.39l-.42,2.83-.83-.12.51-3.44Z"/>
    <path class="st8" d="M243.68,79.08l.02-.6h-.03c-.31.33-.85.59-1.5.49-.92-.14-1.29-.88-1.19-1.56.17-1.14,1.24-1.62,3-1.34v-.1c.07-.39.07-1.11-.86-1.24-.42-.06-.88,0-1.24.17l-.1-.59c.41-.2.98-.28,1.56-.19,1.39.21,1.58,1.24,1.44,2.19l-.26,1.76c-.06.41-.1.81-.09,1.14l-.75-.11ZM243.92,76.66c-.9-.15-1.95-.14-2.09.77-.08.55.23.87.66.93.59.09,1.03-.24,1.22-.62.04-.08.07-.18.09-.27l.12-.82ZM244.98,72.38l-1.35,1.22-.59-.09,1.04-1.27.91.14Z"/>
    <path class="st8" d="M246.72,72.47l.83.12-1.03,6.91-.83-.12,1.03-6.91Z"/>
    <path class="st8" d="M247.91,79.71l.71-4.71.83.12-.7,4.71-.83-.12ZM249.73,73.81c-.04.29-.28.5-.61.45-.29-.04-.46-.31-.42-.6.05-.3.3-.5.6-.46.31.05.47.31.43.61Z"/>
    <path class="st8" d="M250.13,79.15c.22.2.63.44,1.04.5.6.09.93-.18.99-.57.06-.41-.14-.67-.72-.99-.77-.42-1.09-.95-1-1.51.11-.76.8-1.29,1.78-1.15.46.07.84.27,1.07.46l-.3.59c-.16-.14-.47-.35-.89-.41-.49-.07-.8.18-.86.53-.06.39.19.61.74.93.74.43,1.09.9.98,1.6-.12.83-.83,1.32-1.91,1.16-.5-.07-.94-.27-1.23-.51l.3-.62Z"/>
    <path class="st8" d="M253.83,80.6l.7-4.71.83.12-.7,4.71-.83-.12ZM255.65,74.7c-.03.29-.28.5-.61.45-.29-.04-.46-.31-.42-.6.04-.3.29-.5.6-.46.31.05.47.31.43.61Z"/>
    <path class="st8" d="M256.05,80.03c.22.2.62.44,1.04.5.6.09.93-.18.99-.57.06-.41-.14-.67-.72-.99-.77-.42-1.09-.95-1-1.51.11-.76.8-1.29,1.78-1.15.46.07.84.27,1.07.46l-.3.59c-.16-.14-.47-.35-.89-.41-.49-.07-.8.18-.86.53-.06.39.19.6.75.93.74.43,1.08.9.98,1.6-.12.83-.83,1.32-1.91,1.16-.5-.07-.94-.27-1.23-.51l.3-.62Z"/>
  </g>
  <circle class="st5" cx="108.25" cy="153.89" r="11.3" transform="translate(-70.13 213.73) rotate(-73.42)"/>
  <path class="st2" d="M105.95,151.49c-.18,1.08-.81,1.87-1.4,1.78-.59-.1-.92-1.05-.74-2.13.18-1.08.81-1.87,1.4-1.78.59.1.92,1.05.74,2.13Z"/>
  <path class="st2" d="M113.34,152.74c-.18,1.08-.81,1.87-1.4,1.78-.59-.1-.92-1.05-.74-2.13.18-1.08.81-1.87,1.4-1.78.59.1.92,1.05.74,2.13Z"/>
  <path class="st2" d="M107.13,160.54c-5.09-.86-5.46-5.71-5.47-5.76-.01-.23.16-.42.38-.44.23-.01.42.16.44.38h0c.01.17.34,4.26,4.78,5.01,4.44.75,6.09-3,6.16-3.16.09-.21.33-.31.54-.22.21.09.31.33.22.54-.02.05-1.97,4.51-7.06,3.65Z"/>
  <path class="st2" d="M100.78,155.24c-.12-.02-.23-.05-.32-.08-.22-.07-.33-.31-.26-.52.07-.21.3-.33.52-.26.13.04,1.25.36,1.73-.84.09-.21.32-.31.54-.23.21.09.31.32.23.54-.54,1.34-1.7,1.51-2.43,1.39Z"/>
  <path class="st2" d="M114.72,157.59c-.74-.12-1.77-.66-1.85-2.11-.01-.23.16-.42.39-.43.23-.01.42.16.43.39.07,1.33,1.31,1.36,1.36,1.36.23,0,.41.19.41.41,0,.23-.19.41-.41.41-.1,0-.21-.01-.33-.03Z"/>
  <circle class="st9" cx="102.97" cy="185.14" r="11.3" transform="translate(-103.85 231) rotate(-73.42)"/>
  <path class="st2" d="M104.7,190.35c-.31,1.85-1.69,3.16-3.09,2.92-1.4-.23-2.28-1.92-1.97-3.77.31-1.85,1.69-3.16,3.09-2.92,1.4.23,2.28,1.92,1.97,3.77Z"/>
  <path class="st2" d="M100.67,182.74c-.18,1.08-.81,1.87-1.4,1.78-.59-.1-.92-1.05-.74-2.13s.81-1.87,1.4-1.78c.59.1.92,1.05.74,2.13Z"/>
  <path class="st2" d="M108.07,183.98c-.18,1.08-.81,1.87-1.4,1.78-.59-.1-.92-1.05-.74-2.13.18-1.08.81-1.87,1.4-1.78.59.1.92,1.05.74,2.13Z"/>
  <circle class="st2" cx="92.43" cy="247.62" r="11.3" transform="translate(-171.77 255.48) rotate(-71.23)"/>
  <path class="st8" d="M90.13,245.22c-.18,1.08-.81,1.87-1.4,1.78-.59-.1-.92-1.05-.74-2.13.18-1.08.81-1.87,1.4-1.78.59.1.92,1.05.74,2.13Z"/>
  <path class="st8" d="M97.52,246.47c-.18,1.08-.81,1.87-1.4,1.78-.59-.1-.92-1.05-.74-2.13.18-1.08.81-1.87,1.4-1.78.59.1.92,1.05.74,2.13Z"/>
  <path class="st8" d="M97.4,255.29c-.18-.03-.33-.18-.34-.38-.01-.17-.34-4.26-4.78-5.01s-6.09,3-6.16,3.16c-.09.21-.33.31-.54.22-.21-.09-.31-.33-.22-.54.02-.05,1.97-4.51,7.06-3.65,5.09.86,5.46,5.71,5.47,5.76.01.23-.16.42-.38.44-.03,0-.06,0-.1,0Z"/>
  <path class="st3" d="M104.98,225.01c-4.77,4.02-11.89,3.41-15.91-1.36-4.02-4.77-3.41-11.89,1.36-15.91,4.77-4.02,11.89-3.41,15.91,1.36,4.02,4.77,3.41,11.89-1.36,15.91Z"/>
  <path class="st2" d="M91.04,214.48c-.17-.03-.32-.16-.36-.34-.05-.24.1-.47.33-.52l3.17-.7-2.25-1.91c-.19-.16-.21-.43-.05-.62.16-.19.43-.21.62-.05l2.93,2.48c.13.11.18.28.14.44-.04.16-.17.29-.33.32l-4.04.9c-.06.01-.11.01-.17,0Z"/>
  <path class="st2" d="M104.75,216.72c-.05,0-.11-.03-.16-.06l-3.54-2.14c-.14-.09-.22-.25-.21-.41.01-.17.12-.31.28-.37l3.57-1.42c.23-.09.48.02.57.25.09.23-.02.48-.25.57l-2.75,1.09,2.78,1.68c.21.13.27.39.15.6-.1.16-.27.23-.45.21Z"/>
  <g>
    <path class="st2" d="M101.75,223.12c1.12-.98,1.93-2.34,2.19-3.92l-13.05-2.13c-.26,1.58.06,3.11.81,4.39,0,0,1.98-.59,5.18-.06,3.12.51,4.87,1.72,4.87,1.73Z"/>
    <path class="st1" d="M96.35,224.65c2.02.33,3.97-.29,5.41-1.54,0,0-1.75-1.22-4.87-1.73-3.2-.52-5.18.06-5.18.06.96,1.65,2.62,2.87,4.65,3.2Z"/>
  </g>
  <rect class="st11" x="123.82" y="155.91" width="30.92" height="7.04" rx="3.47" ry="3.47" transform="translate(28.48 -20.96) rotate(9.58)"/>
  <path class="st11" d="M138.1,187.5l-15.24-2.57c-1.92-.32-3.73.97-4.06,2.89h0c-.32,1.92.97,3.73,2.89,4.06l15.24,2.57c1.92.32,3.73-.97,4.06-2.89h0c.32-1.92-.97-3.73-2.89-4.06Z"/>
  <path class="st11" d="M131.47,218.51l-13.88-2.34c-1.92-.32-3.73.97-4.06,2.89h0c-.32,1.92.97,3.73,2.89,4.06l13.88,2.34c1.92.32,3.73-.97,4.06-2.89h0c.32-1.92-.97-3.73-2.89-4.06Z"/>
  <path class="st11" d="M120.62,248.81l-8.3-1.4c-1.92-.32-3.73.97-4.06,2.89h0c-.32,1.92.97,3.73,2.89,4.06l8.3,1.4c1.92.32,3.73-.97,4.06-2.89h0c.32-1.92-.97-3.73-2.89-4.06Z"/>
  <rect class="st9" x="150.21" y="220.79" width="21" height="49.47" rx="2.51" ry="2.51" transform="translate(43.11 -23.32) rotate(9.58)"/>
  <rect class="st5" x="185.36" y="195.94" width="21" height="80.04" rx="2.51" ry="2.51" transform="translate(42 -29.31) rotate(9.58)"/>
  <path class="st5" d="M239.89,150.09l-17.03.75,3.68,5.07-29.5,21.41-7.37-10.15-36.61,26.57c-1.4,1.01-1.71,2.97-.69,4.37h0c1.01,1.4,2.97,1.71,4.37.69l31.55-22.9,7.37,10.15,34.56-25.08,3.68,5.08,6-15.96Z"/>
  <rect class="st3" x="221.62" y="181.53" width="21" height="100.42" rx="2.51" ry="2.51" transform="translate(41.81 -35.4) rotate(9.58)"/>
  <rect class="st5" x="166.55" y="299.84" width="12" height="12" transform="translate(53.31 -24.45) rotate(9.58)"/>
  <rect class="st2" x="162.99" y="320.93" width="12" height="12" transform="translate(56.77 -23.57) rotate(9.58)"/>
  <path class="st11" d="M226.27,333.17l-39.28-6.63c-2.02-.34-3.91.87-4.22,2.72h0c-.31,1.84,1.07,3.61,3.09,3.95l39.28,6.63c2.02.34,3.91-.87,4.22-2.72h0c.31-1.84-1.07-3.61-3.09-3.95Z"/>
  <path class="st11" d="M229.83,312.08l-39.28-6.63c-2.02-.34-3.91.87-4.22,2.72h0c-.31,1.84,1.07,3.61,3.09,3.95l39.28,6.63c2.02.34,3.91-.87,4.22-2.72h0c.31-1.84-1.07-3.61-3.09-3.95Z"/>
  <g>
    <path class="st11" d="M152.22,391.36h0c-.31,1.84.93,3.58,2.77,3.9l59.1,9.98c1.84.31,3.58-.93,3.9-2.77h0c.31-1.84-.93-3.58-2.77-3.89l-59.1-9.98c-1.84-.31-3.58.93-3.9,2.77Z"/>
    <path class="st11" d="M154.42,377.96h0c-.31,1.84.93,3.58,2.77,3.9l59.1,9.98c1.84.31,3.58-.93,3.89-2.77h0c.31-1.84-.93-3.58-2.77-3.9l-59.1-9.98c-1.84-.31-3.58.93-3.89,2.77Z"/>
    <rect class="st11" x="186.12" y="336.76" width="6.76" height="66.7" rx="3.38" ry="3.38" transform="translate(-206.99 495.37) rotate(-80.42)"/>
    <path class="st11" d="M158.82,351.16h0c-.31,1.84.93,3.58,2.77,3.89l59.1,9.98c1.84.31,3.58-.93,3.9-2.77h0c.31-1.84-.93-3.58-2.77-3.9l-59.1-9.98c-1.84-.31-3.58.93-3.9,2.77Z"/>
  </g>
  <path class="st9" d="M151.59,349.37c-4.11,24.34-27.17,40.73-51.5,36.63s-40.74-27.16-36.63-51.5c1.02-6.03,3.21-11.58,6.29-16.45l37.78,23.89,5.34-44.36c.69.07,1.39.18,2.1.3,24.33,4.11,40.73,27.17,36.63,51.5Z"/>
  <path class="st5" d="M110.06,289.95c-13.27-1.61-26,2.81-35.3,11.2-2.99,2.7-5.63,5.81-7.82,9.27l37.78,23.89,5.34-44.36Z"/>
  <rect class="st3" x="102.47" y="97.13" width="24.41" height="23.04" rx="3.72" ry="3.72" transform="translate(19.67 -17.56) rotate(9.58)"/>
  <path class="st8" d="M118.49,106.97s0,0,0,0c-.62-.1-1.23-.2-1.87-.3.13-.76.23-1.5.37-2.24.11-.57.38-.79.96-.77.32.01.65.06.97.1h0s1.03.17,1.03.17l.48-2.86-1.08-.17h0c-.55-.08-1.1-.15-1.65-.23-1.92-.26-3.55.84-3.99,2.72-.2.89-.34,1.79-.5,2.7-.08,0-.16.01-.24,0-.66-.11-1.33-.21-1.99-.33-.32-.05-.59-.08-.58.39,0,.2-.07.4-.1.59-.09.58-.17,1.16-.26,1.78.68.11,1.28.22,1.87.31.89.14.87.14.73,1.02-.24,1.5-.48,3-.71,4.5h0s-.39,2.29-.39,2.29l.36.06h0c1,.17,2,.33,3.05.5.41-2.59.81-5.14,1.22-7.7.66.1,1.25.19,1.85.29.04,0,.08.01.11.01l.37.06,1.09-2.72-1.12-.19Z"/>
  <g>
    <rect class="st1" x="135.09" y="102.72" width="24.41" height="23.04" rx="3.72" ry="3.72" transform="translate(21.06 -22.91) rotate(9.58)"/>
    <polygon class="st13" points="150.39 112.52 149.13 111.5 144.41 107.69 143.44 113.6 143.11 115.6 142.46 119.51 148.16 117.41 153.85 115.32 150.39 112.52"/>
  </g>
  <rect class="st7" x="168.44" y="107.46" width="23.04" height="24.41" rx="3.72" ry="3.72" transform="translate(32.02 277.21) rotate(-80.42)"/>
  <g>
    <path class="st13" d="M187.63,120.96c-.22,1.28-.42,2.57-.65,3.85-.23,1.26-.91,2.2-2.04,2.8-.75.4-1.55.52-2.39.38-2.59-.43-5.18-.86-7.76-1.31-1.3-.23-2.25-.96-2.84-2.14-.36-.72-.47-1.5-.33-2.29.43-2.59.87-5.18,1.31-7.77.26-1.55,1.47-2.8,3.01-3.12.48-.1.96-.11,1.45-.03,2.57.43,5.15.86,7.72,1.31,1.13.19,2.02.79,2.63,1.76.52.82.7,1.71.54,2.66-.21,1.3-.44,2.6-.66,3.89ZM178.84,126.26c1.28.22,2.56.43,3.84.65,1.56.26,2.97-.74,3.23-2.29.43-2.56.87-5.12,1.3-7.68.26-1.55-.75-2.96-2.3-3.23-2.56-.43-5.11-.86-7.67-1.29-.16-.03-.33-.04-.49-.04-1.4.02-2.51.97-2.74,2.35-.19,1.09-.37,2.17-.55,3.26-.25,1.47-.5,2.95-.75,4.42-.08.46-.06.91.1,1.35.39,1.05,1.13,1.68,2.24,1.87,1.26.22,2.52.43,3.79.64Z"/>
    <path class="st13" d="M179.27,123.74c-2.26-.38-3.77-2.5-3.38-4.77.38-2.25,2.51-3.76,4.76-3.38,2.26.38,3.76,2.5,3.38,4.78-.38,2.23-2.51,3.74-4.76,3.36ZM182.95,120.17c.28-1.66-.84-3.22-2.49-3.5-1.66-.28-3.22.84-3.5,2.49-.28,1.66.84,3.23,2.49,3.5,1.66.27,3.22-.84,3.5-2.49Z"/>
    <path class="st13" d="M185.98,116.2c-.08.52-.57.87-1.08.79-.52-.08-.88-.57-.8-1.09.08-.52.57-.88,1.09-.79.52.08.87.57.79,1.09Z"/>
  </g>
  <path class="st11" d="M259.37,123.65l-52.55-8.87c-1.86-.31-3.62.94-3.94,2.8h0c-.31,1.86.94,3.62,2.8,3.94l52.55,8.87c1.86.31,3.62-.94,3.94-2.8h0c.31-1.86-.94-3.62-2.8-3.94Z"/>
  <path class="st11" d="M257.39,135.4l-52.55-8.87c-1.86-.31-3.62.94-3.94,2.8h0c-.31,1.86.94,3.62,2.8,3.94l52.55,8.87c1.86.31,3.62-.94,3.94-2.8h0c.31-1.86-.94-3.62-2.8-3.94Z"/>
</svg>